<?xml version="1.0" encoding="UTF-8" standalone="no"?>
<!-- Created with Inkscape (http://www.inkscape.org/) -->

<svg
   version="1.1"
   id="svg2"
   xml:space="preserve"
   width="971.15997"
   height="965.85333"
   viewBox="0 0 971.15997 965.85333"
   sodipodi:docname="land_camo.svg"
   inkscape:version="1.2.1 (9c6d41e410, 2022-07-14)"
   xmlns:inkscape="http://www.inkscape.org/namespaces/inkscape"
   xmlns:sodipodi="http://sodipodi.sourceforge.net/DTD/sodipodi-0.dtd"
   xmlns="http://www.w3.org/2000/svg"
   xmlns:svg="http://www.w3.org/2000/svg"><defs
     id="defs6" /><sodipodi:namedview
     id="namedview4"
     pagecolor="#ffffff"
     bordercolor="#666666"
     borderopacity="1.0"
     inkscape:pageshadow="2"
     inkscape:pageopacity="0.0"
     inkscape:pagecheckerboard="0"
     inkscape:showpageshadow="0"
     inkscape:deskcolor="#d1d1d1"
     showgrid="false"
     inkscape:zoom="0.8665912"
     inkscape:cx="343.29912"
     inkscape:cy="409.65106"
     inkscape:window-width="1920"
     inkscape:window-height="1017"
     inkscape:window-x="1912"
     inkscape:window-y="-8"
     inkscape:window-maximized="1"
     inkscape:current-layer="color-2" /><g
     inkscape:groupmode="layer"
     id="color-0"
     inkscape:label="color-0"><path
       d="M 971.58625,966.66929 H -0.42628178 V -0.81595333 H 971.58625 V 966.66929"
       style="fill:#6c906b;fill-opacity:1;fill-rule:nonzero;stroke:none;stroke-width:0.134009"
       id="path12" /><path
       d="m 5.2593732,942.29866 c 0,0 44.8890258,0.88907 48.4442258,0.88907 3.5552,0 12.444266,-10e-4 15.110933,-1.77867 2.666666,-1.77706 58.666668,-29.33333 63.999998,-29.33333 5.33347,0 18.6668,0.888 24.00013,0 5.33334,-0.888 73.77867,-31.9984 78.22267,-35.55466 4.444,-3.55574 59.55466,-37.33334 65.77733,-37.33334 6.22267,0 29.33333,0.8896 32.88933,2.66667 3.55467,1.7776 19.55467,4.22293 22.22133,1.7776 2.66667,-2.44533 76.44534,-34.66667 76.44534,-34.66667 l 31.11066,-52.44399 c 0,0 10.66667,-0.89067 13.33333,-4.44534 2.66667,-3.55466 11.55467,-15.99866 15.11067,-16.888 3.556,-0.88933 112,-27.556 112,-27.556 l 44.444,-25.77733 67.556,-96.88933 c 0,0 49.77733,-19.55467 57.77733,-20.444 8,-0.88933 42.66666,-8.88933 48,-11.556 5.33333,-2.66667 24,-4.444 32.88933,-4.444 8.88933,0 32.00133,1.776 40.88933,-1.77867 8.888,-3.55466 58.66667,-18.66666 69.77733,-18.66666 11.11067,0 3.11067,3.556 3.11067,3.556 L 965.25864,961.85437 5.2593732,960.9653 v -18.66664"
       style="fill:#4f4039;fill-opacity:1;fill-rule:nonzero;stroke:none;stroke-width:0.133333"
       id="path14" /><path
       d="m 393.25866,0.5200208 c 0,0 -9.33334,11.3333332 -12.66667,11.9999992 -3.33333,0.666667 -25.33333,6 -28,7.333334 -2.66667,1.333333 -23.33333,9.333333 -25.33333,13.333333 -2,4 -7.33333,11.999999 -9.33333,13.999999 -2,2 8.66666,13.333333 9.33333,18 0.66667,4.666666 -1.33333,37.999994 -1.33333,41.333334 0,3.33333 -9.33334,31.33333 -12,34.66666 -2.66667,3.33334 -4,17.33334 -0.66667,20 3.33333,2.66667 24,14 25.33333,18 1.33333,4 6,8 10,8 4,0 37.33333,11.33334 40.66667,14 3.33333,2.66667 21.33333,4.66667 23.33333,5.33334 2,0.66666 15.33333,4.66666 20,6.66666 4.66667,2 30.66667,7.33334 35.33333,7.33334 4.66667,0 54.66667,9.33333 61.33333,10 6.66667,0.66666 97.33333,-0.66667 100,-0.66667 2.66667,0 28.66667,6.66666 35.33333,4.66666 6.66667,-1.99999 29.33334,11.33334 31.33334,14.66667 2,3.33333 34,20.66667 37.99999,20.66667 4,0 63.33334,-6.66667 68.66667,-7.33334 5.33333,-0.66666 37.33333,6 42,10 4.66667,4 22,16 6.66667,30.66667 -15.33334,14.66667 -36.66667,33.33333 -47.33334,38 -10.66666,4.66667 -48,28.66666 -60,32 -11.99999,3.33333 -17.33333,7.33333 -20.66666,10.66666 -3.33333,3.33334 -35.33333,13.33334 -38.66667,14 -3.33333,0.66667 -30.66666,13.33334 -32.66666,14.66667 -2,1.33333 -24,11.33333 -26.66667,11.33333 -2.66667,0 -13.33333,6.66667 -16.66667,7.33334 -3.33333,0.66666 -27.99999,8.66666 -33.33333,9.33333 -5.33333,0.66667 -23.33333,2 -30.66666,5.33333 -7.33334,3.33334 -55.33334,13.33334 -64,13.33334 -8.66667,0 -52,4 -58.66667,6 -6.66666,2 -76.66666,14 -82,14.66666 -5.33333,0.66667 -51.33333,3.33334 -58.66666,6.66667 -7.33333,3.33333 -32,2.66667 -37.33333,2.66667 -5.33334,0 -30.66667,0.66666 -35.33334,2.66666 -4.66666,2 -41.99999,4.66667 -51.33333,5.33334 -9.33333,0.66666 -33.3332,3.33333 -37.3332,5.33333 -4,2 -27.333329,4 -30.666662,5.33333 -3.333333,1.33333 -8.666667,6 -17.333333,6 -8.666667,0 -25.999999,3.33333 -33.999999,3.33333 -8,0 -36.6660914,5.33334 -36.6660914,5.33334 L 2.5927066,0.5200208 H 393.25866"
       style="fill:#4f4039;fill-opacity:1;fill-rule:nonzero;stroke:none;stroke-width:0.133333"
       id="path16" /><path
       d="m -1.2410155,481.89637 c 0,0 116.5266055,16 123.1225555,20 6.59595,4 15.39057,40.66667 13.1919,44.66667 -2.19862,4 -41.774346,39.33333 -41.774346,42.66666 0,3.33334 13.191906,9.33334 8.794576,12 -4.397285,2.66667 -61.562197,32 -94.5400806,32 -32.9797634,0 -8.7946049,-151.33333 -8.7946049,-151.33333"
       style="fill:#4f4039;fill-opacity:1;fill-rule:nonzero;stroke:none;stroke-width:0.242137"
       id="path18" /><path
       d="m 899.83515,560.60104 c 0,-23.07956 13.52867,-169.25012 64.4601,-167.32682 11.14126,55.13707 3.18322,159.63362 3.18322,159.63362 l -67.64332,7.6932"
       style="fill:#4f4039;fill-opacity:1;fill-rule:nonzero;stroke:none;stroke-width:0.247431"
       id="path20" /></g><g
     inkscape:groupmode="layer"
     id="color-1"
     inkscape:label="color-1"><path
       d="m 158.89059,610.38565 c 0,0 13.84005,-27.44619 39.21347,-24.39662 25.37343,3.04958 39.21347,-12.19831 46.1335,-13.7231 6.92002,-1.52479 49.5935,3.04958 50.74684,7.62395 1.15334,4.57436 11.53338,9.14873 18.45339,6.09915 6.92003,-3.04957 23.06675,9.14873 26.52677,13.7231 3.46001,4.57436 14.99338,7.62394 17.30006,3.04958 2.30667,-4.57437 13.84005,-42.69408 19.60674,-50.31803 5.76668,-7.62395 10.38003,-3.04958 16.14671,-9.14873 5.76669,-6.09916 4.61336,-30.49577 10.38004,-35.07014 5.76669,-4.57436 14.99339,-16.77268 18.4534,-7.62395 3.46002,9.14874 -3.46001,21.34705 -4.61335,30.49577 -1.15334,9.14873 1.15334,54.8924 -1.15334,59.46676 -2.30667,4.57437 4.61335,9.14874 13.84005,9.14874 9.22669,0 21.91341,-4.57437 27.6801,-6.09916 5.76668,-1.52478 57.66686,0 64.58689,-1.52478 6.92002,-1.5248 11.53338,-6.09916 18.4534,-6.09916 6.92002,0 32.29344,-45.74367 42.67348,-53.3676 10.38004,-7.62395 19.60673,-10.67352 21.91341,-21.34705 2.30668,-10.67352 4.61334,-27.4462 9.2267,-32.02056 4.61335,-4.57437 10.38004,-15.24788 13.84005,-21.34704 3.46001,-6.09916 20.76007,-6.09916 20.76007,4.57437 0,10.67352 -16.14672,41.1693 -18.4534,45.74366 -2.30667,4.57437 -13.84005,35.07014 -12.68671,39.6445 1.15334,4.57437 -2.30668,21.34705 -2.30668,21.34705 0,0 2.30668,13.7231 4.61335,19.82225 2.30668,6.09915 0,25.92141 -2.30667,30.49578 -2.30668,4.57436 3.46001,13.72309 6.92003,21.34703 3.46001,7.62395 16.14671,28.97099 23.06674,30.49578 6.92002,1.52478 23.06675,-9.14873 29.98677,-9.14873 6.92003,0 20.76008,-1.52479 20.76008,6.09915 0,7.62395 -14.9934,25.92141 -24.22009,28.97098 -9.2267,3.04958 -49.5935,1.5248 -56.51353,3.04958 -6.92002,1.52479 -28.83344,4.57437 -35.75346,12.19832 -6.92003,7.62393 -11.53337,7.62393 -16.14672,9.14873 -4.61336,1.52478 -12.68671,10.67352 -18.4534,13.7231 -5.76669,3.04957 -35.75346,-1.5248 -40.36681,-1.5248 -4.61334,0 -10.38003,7.62395 -16.14672,13.7231 -5.76668,6.09916 -25.37342,12.19831 -28.83343,18.29746 -3.46002,6.09917 25.37341,-71.66506 35.75345,-79.28901 10.38004,-7.62394 50.74685,-30.49576 53.05352,-36.59493 2.30668,-6.09915 -9.2267,-1.52478 -14.99339,-9.14873 -5.76668,-7.62394 -9.22669,-9.14873 -13.84004,-9.14873 -4.61335,0 -9.2267,12.19831 -16.14672,13.7231 -6.92003,1.52479 -43.82682,0 -53.05353,1.52479 -9.22669,1.52479 -20.76007,-9.14873 -27.68008,-13.7231 -6.92003,-4.57436 -6.92003,-1.52479 -14.9934,3.04957 -8.07336,4.57437 -18.45339,16.77268 -26.52675,18.29747 -8.07337,1.5248 -26.52676,-1.52479 -29.98678,4.57437 -3.46001,6.09916 -6.92002,10.67352 -6.92002,18.29746 0,7.62395 -2.30668,27.4462 -2.30668,27.4462 0,0 -1.15333,10.67352 -9.22669,12.19831 -8.07337,1.52479 -16.14673,4.57437 -19.60674,-7.62395 -3.46001,-12.19831 -10.38004,-30.49577 -14.99338,-35.07013 -4.61335,-4.57437 -25.37342,-21.34705 -32.29345,-22.87183 -6.92002,-1.5248 -20.76007,-3.04958 -26.52676,-7.62395 -5.76669,-4.57436 -8.07336,-13.7231 -13.84005,-16.77268 -5.76669,-3.04957 -10.38003,-3.04957 -16.14672,-3.04957 -5.76668,0 -16.14672,-7.62394 -20.76007,-10.67353 -4.61335,-3.04957 -12.68671,-6.09915 -17.30006,-3.04957 -4.61335,3.04957 -9.2267,6.09916 -9.2267,6.09916 l -5.76669,-6.09916"
       style="fill:#100f0d;fill-opacity:1;fill-rule:nonzero;stroke:none;stroke-width:0.132612"
       id="path34" /><path
       d="m 709.86797,404.65928 c 2.66061,4.53148 7.98183,9.56644 19.51114,9.06294 11.52933,-0.50349 17.73742,-3.52447 18.62428,-7.55244 0.88687,-4.02797 2.66061,-14.09791 0,-16.61539 -2.66061,-2.51749 -7.09495,-9.56644 -7.09495,-12.58742 0,-3.02098 -0.88689,-10.06993 -3.54749,-11.58042 -2.66061,-1.51049 -3.54747,-10.06994 0.88687,-12.08393 4.43435,-2.01398 14.18992,-7.55244 15.96368,-9.06294 1.77373,-1.51048 7.09495,-7.04895 7.98182,-9.06294 0.88688,-2.01398 -24.1905,-4.8872 -24.1905,-4.8872 l -33.21106,1.18394 -36.60669,3.19977 c 0,0 -1.77375,8.55944 -0.88688,10.57342 0.88688,2.01399 19.51114,19.13288 22.17175,21.65037 2.66062,2.51748 16.85054,26.18182 15.96367,27.69231 -0.88686,1.51049 4.43436,10.06993 4.43436,10.06993"
       style="fill:#100f0d;fill-opacity:1;fill-rule:nonzero;stroke:none;stroke-width:0.133646"
       id="path36"
       sodipodi:nodetypes="csssssssscccsssc" /><path
       d="m 822.59198,913.18666 c 4,-3.33333 13.33333,3.33334 15.33333,6.66667 2,3.33333 6,10 8.66667,12.66667 2.66667,2.66666 3.33333,8 3.33333,10.66666 0,2.66667 2,16 4,18 2,2 -50.66666,1.33334 -50.66666,1.33334 0,0 4.66666,-18.66667 8,-20.66667 3.33333,-2 6,-9.33333 6,-14 0,-4.66667 5.33333,-14.66667 5.33333,-14.66667"
       style="fill:#100f0d;fill-opacity:1;fill-rule:nonzero;stroke:none;stroke-width:0.133333"
       id="path38" /></g><g
     inkscape:groupmode="layer"
     id="color-2"
     inkscape:label="color-2"><path
       d="m -4.0368143,750.06687 c 0,0 10.224002,-0.444 12.445332,0.444 2.2213303,0.88933 9.7760003,0.88933 12.8880003,0.44533 3.112,-0.44533 18.668,-0.44533 20.44533,0.444 1.77734,0.88933 8.888,7.556 11.11067,7.556 2.22267,0 17.77733,-8 20,-9.77867 2.22267,-1.77733 16,-4 18.66667,-4 2.66666,0 18.667992,-1.33333 20.889332,-3.11066 2.22133,-1.77734 12,-4.444 14.66666,-6.22267 2.66667,-1.77733 19.99867,-15.11066 19.55467,-17.33333 -0.444,-2.22133 1.77734,-18.66667 -1.33333,-24 -3.11067,-5.33333 -10.66534,-16.888 -12.888,-19.55467 -2.22267,-2.66666 -21.77867,-12 -26.22267,-10.66666 -4.444,1.33333 -20.444002,6.22133 -21.333332,8.444 -0.88933,2.22266 -17.77867,14.66666 -20.88933,14.22266 -3.11067,-0.44533 -17.33334,-4.444 -19.11067,-6.66666 -1.77733,-2.22267 -10.22133,-4.44534 -12.444,-4.88934 -2.22267,-0.444 -2.66667,-3.55466 -4.88933,-5.77733 -2.22267,-2.22267 -17.7773403,1.77733 -20.0000003,3.11067 -2.22267,1.33333 -9.778672,5.33333 -11.556002,5.33333 -1.77734,0 0,72 0,72"
       style="fill:#b3a794;fill-opacity:1;fill-rule:nonzero;stroke:none;stroke-width:0.133333"
       id="path22" /><path
       d="m 927.92531,1.1866875 c 0,0 10,11.9999995 13.33333,13.9999995 3.33334,2 6,4.666667 8,8 2,3.333333 13.33334,12 16,12.666666 2.66667,0.666667 2,-34.6666655 2,-34.6666655 h -39.33333"
       style="fill:#b3a794;fill-opacity:1;fill-rule:nonzero;stroke:none;stroke-width:0.133333"
       id="path24" /><path
       d="m 802.9619,289.00669 c 0,0 -10.41035,37.99994 -10.41035,46.76916 0,8.76922 9.66675,10.23075 11.89754,11.6923 2.23079,1.46153 29.74386,7.30767 31.97465,4.38461 2.23079,-2.92308 23.05149,-61.38456 23.05149,-61.38456 l -56.51333,-1.46151"
       style="fill:#b3a794;fill-opacity:1;fill-rule:nonzero;stroke:none;stroke-width:0.208498"
       id="path26" /><path
       d="m 970.22391,551.52084 c 0,0 -15.33334,-0.66667 -18,0 -2.66667,0.66667 -24,6.66666 -26.66667,7.33333 -2.66667,0.66667 -25.33333,8.66667 -27.33333,10 -2,1.33333 -14.66667,4 -18.66667,4.66667 -4,0.66666 -15.33333,0.66666 -18.66666,2 -3.33334,1.33333 -18,8.66666 -20,9.33333 -2,0.66667 -18.66667,7.33333 -18.66667,10 0,2.66667 -4,12.66667 -1.33333,16 2.66666,3.33333 3.33333,18.66667 1.33333,22 -2,3.33333 -7.33333,19.33333 -4,21.33333 3.33333,2 14,10 17.33333,13.33334 3.33334,3.33333 2.66667,16 4.66667,18.66666 2,2.66667 8,10 10,12 2,2 10,13.33333 12.66667,14 2.66666,0.66667 33.99999,-8.66667 33.99999,-8.66667 l 27.33334,1.33334 36,-6 6.66666,-1.33334 2.66667,-1.33333 0.66667,-144.66666"
       style="fill:#b3a794;fill-opacity:1;fill-rule:nonzero;stroke:none;stroke-width:0.133333"
       id="path28" /><path
       d="m 747.4883,573.11749 c -5.48788,-1.2083 -26.75341,0 -29.49735,0.60416 -2.74394,0.60415 -12.34772,10.87476 -15.09167,12.08307 -2.74394,1.20831 -13.03372,9.66646 -15.09167,11.47892 -2.05795,1.81246 -8.23182,9.66646 -8.23182,12.68723 0,3.02078 -10.97575,7.854 -15.09166,10.27062 -4.11591,2.41661 -13.03372,6.04153 -13.71971,8.45815 -0.68598,2.41662 -8.91779,22.35369 -13.71969,22.35369 -4.8019,0 0,6.04154 0,6.04154 0,0 -6.85986,2.41661 -9.60379,4.22908 -2.74394,1.81246 -1.37197,4.22908 -6.17386,6.04154 -4.8019,1.81246 -28.12538,6.04153 -32.24129,8.45815 -4.11591,2.41662 -15.09167,15.10384 -17.83562,17.52045 -2.74393,2.41662 -8.23182,15.10385 -13.0337,16.31216 -4.8019,1.2083 -36.35721,21.74953 -42.53108,24.16615 -6.17386,2.41661 -19.20757,6.04153 -21.95151,7.85399 -2.74395,1.81247 -14.40569,5.43739 -17.14963,5.43739 -2.74393,0 -17.14962,9.66646 -15.77765,13.29139 1.37198,3.62492 155.71858,0.60415 155.71858,0.60415 0,0 19.20758,-26.58277 23.32349,-28.39523 4.11591,-1.81246 43.21705,-26.58277 48.01894,-28.39523 4.8019,-1.81246 30.86932,-14.49969 33.61327,-19.93707 2.74394,-5.43739 16.46363,-25.97861 16.46363,-31.41599 0,-5.43739 -2.74394,-35.64508 -3.42992,-42.89493 -0.68599,-7.24985 -1.37197,-21.74954 4.11591,-25.97861 5.48788,-4.22908 8.9178,-10.87477 8.9178,-10.87477"
       style="fill:#b3a794;fill-opacity:1;fill-rule:nonzero;stroke:none;stroke-width:0.128754"
       id="path30" /><path
       d="m -2.8935422,170.86922 c 0,0 85.9269132,-1.33283 97.3841682,-2.66766 11.457934,-1.33483 28.643464,10.67269 32.080564,14.67518 3.43711,4.00252 22.91313,5.33536 29.78734,4.00252 6.87422,-1.33484 27.4984,-10.67269 32.08006,-13.34236 4.58338,-2.66768 19.47637,8.00502 22.91348,12.00752 3.43709,4.0025 19.47808,9.33984 22.91517,9.33984 3.43712,0 24.05976,0 30.93396,8.00504 6.87421,8.005 14.89299,34.68772 18.33009,40.02506 3.43711,5.33734 6.87594,45.36242 8.02049,50.69775 1.14628,5.33735 8.02049,28.01756 14.89471,32.02008 6.8742,4.0025 34.37107,21.34736 43.5361,21.34736 9.16505,0 32.07852,-26.68271 36.66189,-30.68523 4.58339,-4.0025 16.03926,-12.00752 24.05976,-12.00752 8.02049,0 20.62435,-5.33734 25.20602,-6.67217 4.58337,-1.33283 10.31131,-10.67269 17.18553,-9.33785 6.8742,1.33284 30.93395,9.33785 34.37106,17.34286 3.4371,8.00502 10.31132,17.34487 13.74842,18.67971 3.43711,1.33284 30.93396,20.01253 34.37106,21.34536 3.43712,1.33484 28.64314,26.68473 28.64314,30.68723 0,4.00251 2.29082,16.00803 -1.14628,18.67769 -3.4371,2.66769 -6.87421,18.67771 -13.74843,18.67771 -6.87421,0 -19.47808,-2.66767 -25.20601,0 -5.72794,2.66968 -18.33181,12.00752 -24.05975,12.00752 -5.72794,0 -32.07852,-2.66767 -38.95272,0 -6.87423,2.66968 -27.49686,14.67721 -32.08025,16.01004 -4.58336,1.33483 -53.84742,-4.00251 -53.84742,-4.00251 0,0 -46.97493,-5.33536 -53.84914,-5.33536 -6.87422,0 -122.58956,-21.34736 -122.58956,-21.34736 0,0 -34.37124,1.33484 -38.95427,1.33484 -4.58234,0 -5.72759,-5.33734 -9.16469,-8.00502 -3.43712,-2.66967 -19.47741,-2.66766 -22.91451,0 -3.4371,2.66768 -40.10003,5.33735 -46.974243,8.00502 -6.874213,2.66766 -13.748426,13.34035 -21.767883,10.67268 -8.019456,-2.66768 -18.330776,-2.66967 -24.059744,0 -5.728969,2.66767 -36.6621863,8.00502 -36.6621863,8.00502 L -2.8935422,170.86922"
       style="fill:#b3a794;fill-opacity:1;fill-rule:nonzero;stroke:none;stroke-width:0.185452"
       id="path32" /></g></svg>
