<?xml version="1.0" encoding="UTF-8" standalone="no"?>
<!-- Created with Inkscape (http://www.inkscape.org/) -->

<svg
   width="204.03015mm"
   height="116.24541mm"
   viewBox="0 0 204.03015 116.24541"
   version="1.1"
   id="svg5"
   xml:space="preserve"
   sodipodi:docname="moustache_1.svg"
   inkscape:version="1.2.1 (9c6d41e410, 2022-07-14)"
   xmlns:inkscape="http://www.inkscape.org/namespaces/inkscape"
   xmlns:sodipodi="http://sodipodi.sourceforge.net/DTD/sodipodi-0.dtd"
   xmlns="http://www.w3.org/2000/svg"
   xmlns:svg="http://www.w3.org/2000/svg"><sodipodi:namedview
     id="namedview6"
     pagecolor="#ffffff"
     bordercolor="#999999"
     borderopacity="1"
     inkscape:showpageshadow="0"
     inkscape:pageopacity="0"
     inkscape:pagecheckerboard="0"
     inkscape:deskcolor="#d1d1d1"
     inkscape:document-units="mm"
     showgrid="false"
     inkscape:zoom="1.5691104"
     inkscape:cx="382.06362"
     inkscape:cy="220.50711"
     inkscape:window-width="1920"
     inkscape:window-height="1017"
     inkscape:window-x="1912"
     inkscape:window-y="-8"
     inkscape:window-maximized="1"
     inkscape:current-layer="svg5" /><defs
     id="defs2" /><g
     id="color-0"
     transform="translate(-3.1572462,-3.2220654)"><path
       style="fill:#000000;stroke-width:0.208189;fill-opacity:1"
       d="m 104.69811,118.14757 c -0.17316,-0.7729 -0.55851,-2.78918 -0.85632,-4.48062 -0.9162,-5.20348 -0.90973,-5.20137 -3.33838,-1.08844 -0.34424,0.58296 -0.525116,0.73908 -0.60301,0.52047 -0.0612,-0.17176 -0.873827,-2.70126 -1.80584,-5.62111 -0.932016,-2.91986 -1.725111,-5.34142 -1.762435,-5.38126 -0.03732,-0.0398 -0.73236,1.30224 -1.544528,2.98238 -0.862449,1.78416 -1.578649,3.0208 -1.721848,2.97307 -0.316188,-0.1054 -0.61103,-1.26521 -1.522029,-5.98712 -1.590314,-8.242959 -1.648395,-8.366776 -2.726966,-5.813221 -1.886149,4.465531 -1.641922,4.358651 -2.579671,1.128965 -0.365712,-1.259546 -1.305608,-4.810665 -2.088658,-7.891374 l -1.423723,-5.601291 1.394587,-1.387313 c 10.106532,-10.053804 32.152091,-10.038964 42.033561,0.02829 l 1.49937,1.527564 -1.75063,6.557965 c -2.74854,10.296225 -2.62517,10.099925 -4.06569,6.468883 -0.51912,-1.308541 -1.04851,-2.414052 -1.17642,-2.456687 -0.26498,-0.08833 -0.91093,2.510903 -2.0296,8.166879 -0.86403,4.36851 -1.1072,5.30883 -1.37291,5.30883 -0.10692,0 -0.78173,-1.19372 -1.49959,-2.65272 -1.91049,-3.88296 -1.80015,-3.9749 -4.02547,3.35391 -0.72554,2.38948 -1.35683,4.38217 -1.40286,4.4282 -0.046,0.046 -0.50855,-0.64752 -1.02783,-1.54122 -1.6856,-2.90101 -1.85606,-2.84063 -2.58175,0.91445 -1.51297,7.82888 -1.51058,7.82233 -2.02136,5.54251 z M 54.28548,68.335585 C 34.341629,66.878657 17.927329,59.303813 9.1181922,47.491856 -2.2786907,32.210056 3.3674335,9.9952334 20.0956,4.3009572 23.087137,3.2826366 30.008293,3.0667915 33.050168,3.8969523 42.301654,6.4217836 49.39303,15.302932 49.39303,24.36454 c 0,0.179567 -1.80344,-1.4492 -4.007644,-3.619484 C 37.827739,13.303714 34.007843,11.27595 27.533151,11.268325 15.504409,11.254158 7.6715557,24.127966 13.155441,34.899036 c 4.079324,8.01233 9.992934,10.19391 26.244502,9.681819 10.2221,-0.3221 15.44161,-1.500529 34.038955,-7.685102 12.126418,-4.032659 13.249556,-4.325057 17.279714,-4.498622 7.437197,-0.320296 12.038688,2.357353 13.644188,7.939669 0.62588,2.176191 0.7947,2.253309 1.30266,0.595049 1.86195,-6.07839 6.38658,-8.860429 13.88737,-8.538866 4.04032,0.173212 5.79006,0.616761 15.86007,4.020456 19.27784,6.51597 24.95519,7.830438 35.25041,8.16146 16.89386,0.543186 23.1403,-1.930257 27.01189,-10.696068 4.65959,-10.549958 -3.3443,-22.581773 -15.04475,-22.615988 -6.49023,-0.01898 -10.61871,2.26474 -18.49194,10.229037 l -3.19378,3.230718 0.0966,-2.394177 c 0.27574,-6.83412 5.48506,-13.6050131 13.3841,-17.3961822 5.16494,-2.4789312 12.88292,-2.2408077 18.48943,0.5704562 11.40321,5.717887 16.66908,18.343507 13.23556,31.734041 -2.51914,9.824558 -10.11082,18.018048 -22.16299,23.919918 -11.84025,5.798094 -23.32754,7.797876 -40.20442,6.999047 -20.13472,-0.953034 -36.29351,-9.108923 -37.99831,-19.179042 -0.3622,-2.139508 -0.83691,-2.236117 -1.21412,-0.247086 -1.89569,9.995956 -14.876697,17.130152 -35.120465,19.301764 -3.569264,0.382888 -11.821698,0.548456 -15.164635,0.304248 z"
       id="path990"
       inkscape:label="path" /></g></svg>
