<?xml version="1.0" encoding="UTF-8" standalone="no"?>
<!-- Created with Inkscape (http://www.inkscape.org/) -->

<svg
   width="500"
   height="500"
   viewBox="0 0 500 500"
   version="1.1"
   id="SVGRoot"
   sodipodi:docname="bottoms.svg"
   xml:space="preserve"
   inkscape:export-filename="pants.svg"
   inkscape:export-xdpi="96"
   inkscape:export-ydpi="96"
   inkscape:version="1.2.1 (9c6d41e410, 2022-07-14)"
   xmlns:inkscape="http://www.inkscape.org/namespaces/inkscape"
   xmlns:sodipodi="http://sodipodi.sourceforge.net/DTD/sodipodi-0.dtd"
   xmlns="http://www.w3.org/2000/svg"
   xmlns:svg="http://www.w3.org/2000/svg"><sodipodi:namedview
     id="namedview364"
     pagecolor="#ffffff"
     bordercolor="#666666"
     borderopacity="1"
     inkscape:showpageshadow="0"
     inkscape:pageopacity="0"
     inkscape:pagecheckerboard="0"
     inkscape:deskcolor="#000000"
     inkscape:document-units="px"
     showgrid="false"
     inkscape:zoom="22.627418"
     inkscape:cx="339.38915"
     inkscape:cy="312.85055"
     inkscape:window-width="1920"
     inkscape:window-height="1017"
     inkscape:window-x="1912"
     inkscape:window-y="-8"
     inkscape:window-maximized="1"
     inkscape:current-layer="pants"
     inkscape:pageshadow="0" /><defs
     id="defs359"><inkscape:path-effect
       effect="bspline"
       id="path-effect3195"
       is_visible="true"
       lpeversion="1"
       weight="33.333333"
       steps="2"
       helper_size="0"
       apply_no_weight="true"
       apply_with_weight="true"
       only_selected="false" /><inkscape:path-effect
       effect="bspline"
       id="path-effect956"
       is_visible="true"
       lpeversion="1"
       weight="33.333333"
       steps="2"
       helper_size="0"
       apply_no_weight="true"
       apply_with_weight="true"
       only_selected="false" /></defs><g
     inkscape:groupmode="layer"
     id="pants"
     inkscape:label="pants"
     style="display:inline"><g
       id="textures"
       inkscape:label="textures"
       style="display:inline"><path
         style="fill:#000000;fill-opacity:0"
         d="m 144.66835,318.37563 c 0.24889,2.9589 3.16556,9.04223 5.45712,15.08395 2.29156,6.04172 3.95819,12.0416 5.20811,18.12496 1.24992,6.08335 2.08324,12.24989 2.3748,18.0832 0.29157,5.83331 0.0416,11.3332 -1.00019,16.62472 -1.04176,5.29153 -2.87506,10.37477 -3.62469,13.29176 -0.74963,2.91699 -0.4163,3.66697 1.08402,4.2498 1.50033,0.58282 4.16694,0.99948 7.79189,1.0827 3.62495,0.0832 8.20819,-0.16678 13.29169,0.29171 5.0835,0.45849 10.66672,1.62513 14.54134,1.6249 3.87463,-2.2e-4 6.04125,-1.16687 9.9577,-6.33339 3.91646,-5.16652 9.58301,-14.33301 13.79139,-20.83309 4.20838,-6.50009 6.95833,-10.33334 9.7501,-13.62513 2.79176,-3.2918 5.62504,-6.04175 9.20855,-8.75018 3.58351,-2.70844 7.91676,-5.37506 13.16112,-7.78967 5.24437,-2.41461 11.39908,-4.577 15.52689,-4.18442 4.1278,0.39258 6.22794,3.33873 9.10875,8.42011 2.88081,5.08138 6.54211,12.29727 8.92032,20.50943 2.37821,8.21215 3.47349,17.41959 5.23468,22.54175 1.7612,5.12216 4.18701,6.15894 9.91943,6.76472 5.73243,0.60578 14.77097,0.78099 20.97967,-0.24125 6.2087,-1.02223 9.58761,-3.24161 11.33685,-5.95359 1.74923,-2.71199 1.86887,-5.91735 1.12105,-10.55345 -0.74783,-4.6361 -2.36336,-10.70243 -2.51674,-15.37449 -0.15337,-4.67206 1.15597,-7.94858 5.64887,-16.54956 4.4929,-8.60097 12.1688,-22.52518 17.29966,-30.46951 5.13086,-7.94434 7.71561,-9.90732 10.30057,-11.87046 0,0 -19.12068,-4.98959 -19.12068,-4.98959 -2.42718,2.08894 -4.85423,4.17777 -8.19465,6.43035 -3.34042,2.25258 -7.59401,4.66873 -11.85562,6.16628 -4.2616,1.49755 -8.53124,2.07625 -15.31379,2.21296 -6.78255,0.13671 -16.07741,-0.16873 -25.04951,0.11537 -8.9721,0.2841 -17.62024,1.15784 -27.45361,1.29093 -9.83338,0.1331 -20.85105,-0.47462 -33.02974,-2.07393 -12.17869,-1.59931 -25.51716,-4.1902 -34.48535,-6.92917 -8.96818,-2.73898 -13.56514,-5.62628 -16.85293,-6.01661 -3.28778,-0.39033 -5.26506,1.717 -8.03475,3.30026 -2.76968,1.58325 -6.33213,2.64249 -9.3225,3.08894 -2.99036,0.44645 -5.40872,0.27979 -5.15982,3.23869 z"
         id="path3193"
         inkscape:path-effect="#path-effect3195"
         inkscape:original-d="m 142,315.24999 c 2.91766,6.08434 5.83433,12.16767 8.75,18.25 1.6677,6.00112 3.33433,12.001 5,18 0.83435,6.16779 1.66766,12.33433 2.5,18.5 -0.24901,5.50111 -0.499,11.001 -0.75,16.5 -1.83237,5.08443 -3.66567,10.16767 -5.5,15.25 0.33434,0.75101 0.66766,1.501 1,2.25 2.66772,0.41767 5.33433,0.83433 8,1.25 4.58442,-0.24901 9.16766,-0.499 13.75,-0.75 5.58444,1.16769 11.16766,2.33433 16.75,3.5 2.16771,-1.16569 4.33433,-2.33233 6.49999,-3.5 5.66778,-9.16585 11.33434,-18.33233 17,-27.5 2.75106,-3.83241 5.501,-7.66567 8.25,-11.5 2.83439,-2.74905 5.66767,-5.499 8.5,-8.25 4.33442,-2.66572 8.66767,-5.33233 13,-8 6.1561,-2.16152 12.31082,-4.32391 18.46491,-6.48744 2.10128,2.94734 4.20142,5.8935 6.3007,8.83884 3.66254,7.21735 7.32385,14.43324 10.98439,21.6486 1.09635,9.20905 2.19163,18.41649 3.28598,27.62355 2.42696,1.03785 4.85277,2.07463 7.27773,3.11047 9.04008,0.17621 18.07862,0.35141 27.11669,0.52563 3.38011,-2.21851 6.75902,-4.43788 10.13712,-6.65838 0.12065,-3.20459 0.24029,-6.40995 0.35894,-9.61657 -1.61466,-6.0658 -3.23019,-12.13213 -4.84683,-18.19988 1.31042,-3.27571 2.61975,-6.55223 3.92817,-9.82994 7.67737,-13.92407 15.35327,-27.84827 23.02863,-41.77431 2.58601,-1.96218 7.75488,-5.88941 7.75488,-5.88941 l -19.12068,-4.98959 c 0,0 -4.85331,4.17884 -7.28154,6.26682 -4.25286,2.4173 -8.50645,4.83344 -12.7613,7.24874 -4.26888,0.57973 -8.53852,1.15844 -12.8094,1.73617 -9.2944,-0.30446 -18.58926,-0.60991 -27.88567,-0.91637 -8.64765,0.87479 -17.29579,1.74853 -25.94543,2.62132 -11.01727,-0.60675 -22.03494,-1.21447 -33.0542,-1.82322 -13.33822,-2.59004 -26.67669,-5.18093 -40.01695,-7.77297 -4.59613,-2.88641 -9.19309,-5.77371 -13.79113,-8.66206 -1.97633,2.10838 -3.95361,4.21572 -5.93198,6.32215 -3.56168,1.0603 -7.12413,2.11954 -10.68782,3.17785 -2.41745,-0.16567 -4.83581,-0.33233 -7.2552,-0.5 z"
         sodipodi:nodetypes="ccccccccccccccccccccccccccccccccccccccc" /></g><g
       id="outlines"
       inkscape:label="outlines"><path
         style="fill:#000000"
         id="path1319"
         d="m 142.80859,315.25977 c -0.83843,0.11646 -1.68598,0.47154 -2.23119,1.13937 -0.14754,0.1441 -0.2267,0.33583 -0.33521,0.50711 -0.0545,0.22802 -0.048,0.50558 0.13476,0.67969 0.60537,0.8761 1.20076,1.75971 1.75443,2.6695 0.55034,0.92103 1.075,1.85665 1.58737,2.79925 0.48847,0.9843 0.96424,1.97484 1.41838,2.97547 0.51809,1.15857 1.03618,2.31713 1.55428,3.4757 0.39908,1.02995 0.79817,2.0599 1.19726,3.08984 0.58342,1.71675 1.16142,3.43537 1.7482,5.15096 0.78706,2.23614 1.57412,4.47228 2.36118,6.70842 0.3457,1.05403 0.6914,2.10807 1.03711,3.16211 0.31346,1.06502 0.61148,2.13433 0.89178,3.20856 0.23852,1.03368 0.46453,2.07027 0.6786,3.10933 0.20943,1.08847 0.38777,2.18295 0.58555,3.27368 0.16952,1.03756 0.32037,2.0783 0.46597,3.11952 0.15536,1.08482 0.28945,2.17257 0.42894,3.2595 0.13585,1.14761 0.27992,2.29432 0.38448,3.44534 0.10091,1.03817 0.20067,2.07657 0.27232,3.11724 0.0765,1.0422 0.14241,2.0856 0.1714,3.13032 0.043,1.1216 0.0214,2.24498 -0.0237,3.36624 -0.0424,1.11722 -0.14765,2.23125 -0.26118,3.34325 -0.12306,1.1073 -0.30161,2.20778 -0.4883,3.306 -0.19659,1.09608 -0.44072,2.18236 -0.72695,3.25852 -0.28085,1.03904 -0.58195,2.07224 -0.89648,3.10156 -0.34543,1.04669 -0.71493,2.08479 -1.11133,3.11328 -0.42483,1.06718 -0.87316,2.1245 -1.33688,3.17532 -0.44369,1.04809 -0.95791,2.07144 -1.27431,3.16834 -0.0892,0.27823 -0.15746,0.56277 -0.23647,0.84384 -0.0102,0.53861 0.29461,1.07414 0.77344,1.32617 0.58163,0.35053 1.3272,0.46158 1.96485,0.19922 0.43569,-0.5081 0.60518,-1.17553 0.90405,-1.76287 0.44244,-0.98325 0.86637,-1.9745 1.28149,-2.96955 0.40143,-1.03377 0.81451,-2.06313 1.2091,-3.09948 0.38116,-1.04252 0.76232,-2.08558 1.1049,-3.1415 0.32863,-1.00339 0.63708,-2.01401 0.87115,-3.04418 0.2514,-1.01524 0.4821,-2.03599 0.67929,-3.06306 0.1906,-1.09123 0.36409,-2.186 0.48921,-3.28677 0.12076,-1.03731 0.21281,-2.07783 0.28024,-3.11987 0.0567,-1.1037 0.10746,-2.20856 0.10492,-3.31386 -0.003,-1.06634 -0.0283,-2.13279 -0.084,-3.1976 -0.10687,-1.43929 -0.19689,-2.87991 -0.32891,-4.31722 -0.093,-1.04408 -0.21246,-2.08567 -0.32208,-3.12811 -0.12147,-1.12632 -0.2572,-2.25117 -0.40973,-3.37372 -0.15765,-1.16218 -0.30125,-2.32633 -0.46784,-3.48726 -0.16359,-1.13074 -0.33787,-2.25999 -0.52777,-3.38659 -0.18586,-1.09685 -0.40738,-2.1874 -0.66782,-3.26896 -0.24552,-1.04457 -0.52284,-2.08119 -0.8166,-3.11311 -0.29186,-1.01145 -0.6052,-2.0163 -0.92853,-3.01809 -0.52919,-1.66525 -1.08296,-3.32251 -1.64866,-4.97569 -0.61812,-1.82655 -1.24632,-3.64971 -1.85779,-5.4785 -0.33179,-0.99477 -0.65541,-1.99271 -1.01244,-2.97875 -0.38358,-1.0554 -0.78335,-2.10558 -1.22722,-3.13721 -0.41013,-0.96599 -0.83926,-1.92384 -1.27963,-2.87638 -0.50184,-1.07511 -1.00367,-2.15023 -1.50551,-3.22534 -0.50404,-0.98197 -1.01992,-1.95766 -1.54852,-2.92663 -0.58496,-1.0231 -1.17296,-2.04451 -1.75812,-3.06751 -0.1468,-0.21767 -0.35898,-0.4293 -0.63477,-0.45117 -0.12834,-0.0346 -0.25669,-0.0266 -0.38672,-0.0137 z" /><path
         style="fill:#000000"
         id="path1321"
         d="m 212.57617,378.65039 h -0.002 -0.002 l -0.0957,0.0137 -0.0371,0.0352 -0.0234,0.0742 c -0.0741,0.0974 -0.17771,0.17237 -0.2222,0.29225 -0.77752,1.24111 -1.55499,2.48225 -2.33249,3.72337 -0.5905,0.79492 -1.18099,1.58985 -1.77149,2.38477 -0.57747,0.90625 -1.15494,1.8125 -1.73242,2.71875 -0.61458,1.05469 -1.22916,2.10937 -1.84375,3.16406 -1.26953,2.25651 -2.53906,4.51302 -3.80859,6.76953 -0.3099,0.5306 -0.61979,1.0612 -0.92969,1.5918 -0.4069,0.61784 -0.8138,1.23568 -1.2207,1.85351 -0.17904,0.25 -0.35808,0.5 -0.53711,0.75 -0.1888,0.24219 -0.37761,0.48438 -0.56641,0.72657 -0.28646,0.30273 -0.57291,0.60547 -0.85937,0.9082 -0.20834,0.18424 -0.41667,0.36849 -0.625,0.55273 -0.60157,0.38998 -1.20313,0.77995 -1.80469,1.16993 -0.60221,0.0566 -1.20443,0.11328 -1.80664,0.16992 -0.25326,0.003 -0.50651,0.005 -0.75977,0.008 -0.31575,0.026 -0.63151,0.0521 -0.94726,0.0781 -0.12698,0.007 -0.25541,-0.0133 -0.38095,0.0199 -0.11402,0.0126 -0.22818,0.024 -0.34171,0.0407 l -0.0332,-0.004 c -0.19466,0.009 -0.38932,0.0182 -0.58399,0.0273 l -0.16797,0.0449 0.0117,0.006 c -0.20573,-0.0176 -0.41145,-0.0351 -0.61718,-0.0527 -1.10092,-0.19401 -2.20183,-0.38802 -3.30274,-0.58203 -1.32812,-0.24349 -2.65625,-0.48698 -3.98437,-0.73047 -1.04297,-0.15495 -2.08594,-0.3099 -3.12891,-0.46485 -1.09831,-0.11067 -2.19661,-0.22135 -3.29492,-0.33203 -1.1237,-0.0306 -2.2474,-0.0612 -3.3711,-0.0918 -0.77604,-0.0143 -1.55208,-0.0286 -2.32812,-0.043 -1.12174,0.0124 -2.24349,0.0247 -3.36523,0.0371 -2.14258,0.0449 -4.28516,0.0898 -6.42774,0.13476 l 0.0254,-0.01 c -0.48502,-0.0527 -0.97005,-0.10547 -1.45508,-0.15821 -0.24153,-0.0339 -0.48307,-0.0677 -0.72461,-0.10156 -0.23958,-0.0469 -0.47916,-0.0937 -0.71875,-0.14062 -0.16796,-0.0527 -0.33593,-0.10547 -0.5039,-0.15821 -0.46159,-0.24088 -0.92318,-0.48177 -1.38477,-0.72265 -0.10547,-0.17318 -0.21094,-0.34636 -0.3164,-0.51954 -0.0579,-0.15039 -0.11589,-0.30078 -0.17383,-0.45117 -0.0984,-0.43358 -0.19527,-0.86749 -0.29492,-1.30078 -0.0553,-0.0611 -0.11269,-0.12044 -0.16797,-0.18164 l -0.14649,-0.10742 -0.0449,-0.0332 -0.16351,-0.0818 -5.5e-4,-2.8e-4 c -0.11655,-0.0358 -0.22295,-0.10461 -0.34961,-0.10742 -0.22982,-0.0397 -0.45964,-0.0794 -0.68945,-0.11914 -0.19987,-0.006 -0.39974,-0.0117 -0.59961,-0.0176 l -0.18164,0.0176 -0.0801,0.008 h -0.004 l -0.17903,0.037 -6.6e-4,1.3e-4 -0.0449,0.01 -0.16797,0.0703 -0.043,0.0176 -0.0996,0.0527 -0.0879,0.0723 -0.008,0.006 -0.12109,0.13281 -0.10547,0.14453 -0.0664,0.14453 -0.0352,0.15625 c -0.0137,0.49089 -0.0273,0.98178 -0.041,1.47266 0.0136,0.12146 0.009,0.24495 0.0409,0.36436 0.0332,0.16632 0.0665,0.33262 0.0997,0.49892 0.12044,0.26758 0.24088,0.53516 0.36133,0.80274 0.14322,0.22656 0.28645,0.45312 0.42968,0.67968 0.14128,0.16862 0.28255,0.33724 0.42383,0.50586 0.1569,0.153 0.3138,0.30599 0.4707,0.45899 0.17058,0.13346 0.34115,0.26692 0.51172,0.40039 0.1849,0.11393 0.36979,0.22786 0.55469,0.34179 0.25911,0.11849 0.51823,0.23698 0.77734,0.35547 0.27084,0.0872 0.54167,0.17448 0.8125,0.26172 0.26758,0.0566 0.53516,0.11328 0.80274,0.16992 0.26953,0.043 0.53906,0.0859 0.80859,0.12891 0.30274,0.0286 0.60547,0.0573 0.90821,0.0859 1.13867,-0.0124 2.27734,-0.0247 3.41601,-0.0371 2.0293,-0.054 4.05859,-0.10807 6.08789,-0.16211 1.13672,-0.0137 2.27344,-0.0273 3.41016,-0.041 1.08398,0.0365 2.16797,0.0729 3.25195,0.10938 1.27409,0.12825 2.54818,0.25651 3.82227,0.38476 1.11002,0.19401 2.22005,0.38803 3.33007,0.58204 1.12045,0.20572 2.24089,0.41145 3.36133,0.61718 1.11393,0.15821 2.22787,0.31641 3.3418,0.47461 0.71289,0.0964 1.42578,0.19271 2.13867,0.28907 0.48763,0.0221 0.97526,0.0443 1.46289,0.0664 0.45834,-0.004 0.91667,-0.008 1.375,-0.0117 0.23763,-0.0254 0.47526,-0.0508 0.71289,-0.0762 0.30534,-0.0508 0.61068,-0.10156 0.91602,-0.15234 0.26432,-0.0703 0.52864,-0.14063 0.79297,-0.21094 0.41276,-0.18164 0.82552,-0.36328 1.23828,-0.54492 0.30729,-0.17188 0.61458,-0.34375 0.92187,-0.51563 0.23698,-0.15429 0.47396,-0.30859 0.71094,-0.46289 0.2155,-0.17057 0.43099,-0.34114 0.64649,-0.51172 0.17968,-0.17057 0.35937,-0.34114 0.53906,-0.51172 0.17122,-0.17903 0.34245,-0.35807 0.51367,-0.53711 0.16146,-0.18815 0.32292,-0.3763 0.48437,-0.56445 0.1836,-0.24609 0.36719,-0.49219 0.55079,-0.73828 0.23958,-0.35547 0.47916,-0.71094 0.71875,-1.06641 0.44466,-0.74218 0.88932,-1.48437 1.33398,-2.22656 0.53385,-0.97396 1.06771,-1.94791 1.60156,-2.92187 0.91732,-1.69792 1.83464,-3.39584 2.75196,-5.09375 0.46289,-0.83269 0.92578,-1.66537 1.38867,-2.49805 0.55208,-0.93815 1.10416,-1.8763 1.65625,-2.81445 0.63216,-0.96289 1.26432,-1.92578 1.89648,-2.88868 0.99805,-1.4694 1.9961,-2.9388 2.99414,-4.4082 l 0.0586,-0.13867 0.0352,-0.15234 -0.01,-0.14844 c -0.0723,-0.11589 -0.14453,-0.23177 -0.2168,-0.34766 -0.0879,-0.0846 -0.16175,-0.18385 -0.26367,-0.2539 -0.10222,-0.0859 -0.20443,-0.17188 -0.30664,-0.25782 -0.23633,-0.10547 -0.47266,-0.21093 -0.70899,-0.3164 -0.125,-0.0293 -0.25,-0.0586 -0.375,-0.0879 l -0.18164,-0.0156 z m -58.72656,21.71289 -0.0176,-0.10742 -0.002,-0.004 z" /><path
         style="fill:#000000"
         id="path1323"
         d="m 255.72656,343.61914 -0.16211,0.0684 c -0.19401,0.0456 -0.38802,0.0912 -0.58203,0.13672 -0.14648,0.0684 -0.29297,0.13672 -0.43945,0.20508 l -0.11719,-0.006 h -0.11719 l -0.0527,0.0234 -0.002,0.002 -0.0879,0.0195 -0.084,-0.004 -0.0801,0.0234 -0.002,0.002 -0.0801,0.0488 h -0.002 l -0.0879,0.0293 c -0.0286,-10e-4 -0.0572,-0.0347 -0.0781,0.0137 l -0.01,0.004 -0.0508,0.002 c -0.0359,-0.0156 0.0323,0.21912 -0.084,0.0254 h -0.002 l -0.0801,0.0508 -0.0176,0.0137 -0.01,0.0352 -0.0547,0.0449 -0.0684,0.0195 -0.0781,-0.0117 -0.0352,0.0117 -0.0254,0.0449 -0.0352,0.0215 -0.0566,-0.0117 -0.0547,0.0117 -0.0488,0.0293 c -0.99414,0.30859 -1.98829,0.61718 -2.98243,0.92578 -0.52213,0.21419 -1.04427,0.42838 -1.5664,0.64258 -0.84505,0.38671 -1.69011,0.77343 -2.53516,1.16015 -0.75444,0.3851 -1.51322,0.76186 -2.26492,1.15225 -0.75414,0.40107 -1.50828,0.80215 -2.26242,1.20322 -0.57552,0.32682 -1.15104,0.65365 -1.72657,0.98047 -0.88671,0.53646 -1.77343,1.07292 -2.66015,1.60937 -0.92188,0.60092 -1.84375,1.20183 -2.76563,1.80274 -0.54166,0.36654 -1.08333,0.73307 -1.625,1.09961 -0.76432,0.57031 -1.52864,1.14062 -2.29296,1.71094 -0.38152,0.30013 -0.76303,0.60026 -1.14454,0.90039 -0.50976,0.43229 -1.01953,0.86458 -1.52929,1.29687 -0.52279,0.47787 -1.04558,0.95573 -1.56836,1.43359 -0.43034,0.42123 -0.86068,0.84245 -1.29102,1.26368 -0.53582,0.56132 -1.07994,1.11485 -1.60156,1.68955 -0.6525,0.6975 -1.28286,1.41513 -1.92188,2.1249 -0.66608,0.87478 -1.3459,1.73917 -1.99943,2.62344 -0.65608,0.88212 -1.3158,1.76154 -1.96856,2.64612 -0.90549,1.22391 -1.8107,2.44801 -2.71365,3.6738 -0.51041,0.9974 -1.02083,1.99479 -1.53125,2.99219 -0.18099,0.33919 -0.36198,0.67838 -0.54296,1.01758 -0.16797,0.52408 -0.33594,1.04817 -0.50391,1.57226 l 0.0195,0.0449 0.004,0.0527 0.0117,0.0469 0.041,0.0312 0.01,0.0527 -0.0117,0.0547 0.0312,0.0332 0.13867,-0.008 c 0.5918,0.26237 1.18359,0.52474 1.77539,0.78711 l 0.17188,-0.0547 0.15234,-0.0996 0.11719,-0.13672 c 0.63541,-1.28386 1.27083,-2.56771 1.90625,-3.85156 0.18099,-0.35678 0.36198,-0.71355 0.54296,-1.07032 0.59506,-0.92187 1.19011,-1.84375 1.78516,-2.76562 0.69466,-0.86589 1.38932,-1.73177 2.08399,-2.59766 0.91471,-1.0026 1.82942,-2.00521 2.74414,-3.00781 0.74869,-0.80404 1.49739,-1.60807 2.24609,-2.41211 0.78776,-0.77148 1.57552,-1.54297 2.36328,-2.31445 0.83008,-0.73373 1.66016,-1.46745 2.49024,-2.20118 0.87695,-0.69921 1.7539,-1.39843 2.63086,-2.09765 0.9095,-0.6569 1.81901,-1.3138 2.72851,-1.9707 0.9362,-0.62305 1.8724,-1.2461 2.80859,-1.86915 0.9655,-0.57812 1.93099,-1.15624 2.89649,-1.73437 0.96549,-0.52409 1.93099,-1.04818 2.89648,-1.57227 1.02149,-0.50325 2.04297,-1.00651 3.06446,-1.50976 1.02018,-0.4694 2.04036,-0.9388 3.06054,-1.4082 2.03972,-0.91211 4.07943,-1.82422 6.11914,-2.73633 l 0.10938,-0.13867 0.0801,-0.12305 0.0215,-0.14649 -0.0254,-0.0937 0.0234,-0.14062 0.0234,-0.14063 -0.0762,-0.13086 -0.0234,-0.0723 0.002,-0.0762 -0.0137,-0.0977 c -0.29688,-0.33398 -0.59375,-0.66797 -0.89063,-1.00195 -0.125,0.0338 -0.25,0.0677 -0.375,0.10156 z" /><path
         style="fill:#000000"
         id="path1411"
         d="m 359.6875,310.29297 c -0.92578,0.58854 -1.85156,1.17708 -2.77734,1.76562 -0.73243,0.38347 -1.46485,0.76693 -2.19727,1.15039 -0.86849,0.67383 -1.73698,1.34766 -2.60547,2.02149 -0.67122,0.57031 -1.34245,1.14062 -2.01367,1.71094 -0.5944,0.93033 -1.1888,1.86067 -1.7832,2.79101 -0.54427,0.97591 -1.08854,1.95182 -1.63282,2.92774 -0.51757,0.99804 -1.03515,1.99609 -1.55273,2.99414 -1.38477,2.82552 -2.76953,5.65104 -4.1543,8.47656 -0.52148,1.0293 -1.04297,2.05859 -1.56445,3.08789 -0.52409,0.97266 -1.04818,1.94531 -1.57227,2.91797 -1.16862,2.08984 -2.33724,4.17969 -3.50586,6.26953 -0.56249,0.98047 -1.125,1.96094 -1.6875,2.94141 -0.64062,1.05273 -1.28124,2.10546 -1.92187,3.1582 -1.66341,2.68424 -3.32682,5.36849 -4.99023,8.05273 -0.45118,1.02865 -0.90235,2.0573 -1.35352,3.08594 -0.29818,0.89649 -0.59635,1.79297 -0.89453,2.68945 -0.1849,1.00717 -0.36979,2.01433 -0.55469,3.02149 -0.0111,1.03906 -0.0221,2.07812 -0.0332,3.11719 0.0794,0.65429 0.15885,1.30859 0.23828,1.96289 0.26367,1.01953 0.52734,2.03906 0.79102,3.05859 0.40169,1.03516 0.80338,2.07031 1.20507,3.10547 0.45183,1.10221 0.90365,2.20443 1.35547,3.30664 0.38867,1.03776 0.77735,2.07552 1.16602,3.11328 0.15755,0.44076 0.3151,0.88151 0.47265,1.32227 0.0632,0.9707 0.12631,1.9414 0.18946,2.91211 -0.20443,0.98632 -0.40886,1.97265 -0.61328,2.95898 -0.44792,0.86979 -0.89584,1.73958 -1.34375,2.60938 -0.45899,0.49804 -0.91797,0.99609 -1.37696,1.49414 -0.22005,0.22005 -0.4401,0.4401 -0.66015,0.66015 -0.50196,0.44532 -1.00391,0.89063 -1.50586,1.33594 -0.94336,0.49154 -1.88672,0.98307 -2.83008,1.47461 -0.93164,0.30013 -1.86328,0.60026 -2.79492,0.90039 -1.10157,0.12565 -2.20313,0.2513 -3.30469,0.37695 -1.10742,0.0671 -2.21484,0.13412 -3.32227,0.20117 -1.10677,0.0215 -2.21354,0.043 -3.32031,0.0645 -1.1263,-0.0391 -2.2526,-0.0781 -3.3789,-0.11719 -1.12435,-0.0866 -2.2487,-0.17318 -3.37305,-0.25977 -1.09115,-0.12239 -2.18229,-0.24479 -3.27344,-0.36718 -1.11588,-0.15821 -2.23177,-0.31641 -3.34766,-0.47461 -1.11328,-0.17578 -2.22656,-0.35156 -3.33984,-0.52735 -0.35482,-0.0592 -0.70963,-0.11849 -1.06445,-0.17773 -0.94792,-0.35026 -1.89584,-0.70052 -2.84375,-1.05078 l -0.0957,-0.0508 c -0.24283,-0.26498 -0.48567,-0.52995 -0.72851,-0.79492 -0.1237,-0.16862 -0.2474,-0.33724 -0.37109,-0.50586 l -0.0566,-0.11719 c -0.21289,-0.89583 -0.42578,-1.79167 -0.63867,-2.6875 -0.1276,-1.11198 -0.25521,-2.22396 -0.38281,-3.33594 -0.26823,-2.86263 -0.53646,-5.72526 -0.80469,-8.58789 -0.10937,-1.10872 -0.21875,-2.21745 -0.32812,-3.32617 -0.13282,-1.03971 -0.26563,-2.07943 -0.39844,-3.11914 -0.21094,-1.08854 -0.42188,-2.17709 -0.63281,-3.26563 -0.27409,-1.07552 -0.54818,-2.15104 -0.82227,-3.22656 -0.30469,-0.80599 -0.60937,-1.61198 -0.91406,-2.41797 -0.29427,-0.68164 -0.58854,-1.36328 -0.88281,-2.04492 -0.39193,-0.83268 -0.78386,-1.66536 -1.17578,-2.49805 -0.53125,-0.99739 -1.0625,-1.99479 -1.59375,-2.99218 -0.55079,-0.98633 -1.10157,-1.97266 -1.65235,-2.95899 -0.57291,-0.99544 -1.14583,-1.99088 -1.71875,-2.98633 -0.57878,-0.97039 -1.14918,-1.94587 -1.73303,-2.91318 -0.60507,-0.97405 -1.20654,-1.95035 -1.81384,-2.92299 -0.60118,-0.94929 -1.19873,-1.90089 -1.80207,-2.84879 l -0.099,-0.15372 -0.0209,-0.0324 c -0.71289,-0.65234 -1.42578,-1.30469 -2.13867,-1.95703 -0.28451,-0.20768 -0.56901,-0.41537 -0.85352,-0.62305 -0.64192,-0.29167 -1.28385,-0.58333 -1.92578,-0.875 -0.96159,-0.18229 -1.92317,-0.36458 -2.88476,-0.54687 -0.61654,0.0312 -1.23307,0.0627 -1.84961,0.0937 -1.09636,0.34895 -2.19271,0.69791 -3.28906,1.04687 -0.78842,0.28776 -1.57683,0.57552 -2.36524,0.86328 l -0.0586,0.0449 -0.004,0.002 -0.0684,0.0137 -0.006,0.0488 0.0547,0.008 0.0508,-0.004 0.0332,0.0332 0.002,0.12304 c 0.34245,0.50782 0.68489,1.01563 1.02734,1.52344 0.28971,0.11914 0.57943,0.23828 0.86914,0.35742 0.97005,-0.24349 1.94011,-0.48698 2.91016,-0.73047 0.28841,-0.0521 0.57682,-0.10416 0.86523,-0.15625 0.84115,0.0833 1.68229,0.16667 2.52344,0.25 0.85286,0.34831 1.70573,0.69662 2.55859,1.04493 0.36328,0.32487 0.72657,0.64974 1.08985,0.97461 0.57617,0.77604 1.15234,1.55208 1.72851,2.32812 0.60352,0.94531 1.20703,1.89063 1.81055,2.83594 0.58919,0.95703 1.17839,1.91406 1.76758,2.87109 0.56575,0.94011 1.13151,1.88021 1.69726,2.82031 0.55144,0.95638 1.10287,1.91276 1.6543,2.86914 0.53516,0.9681 1.07031,1.9362 1.60547,2.9043 0.50521,0.99154 1.01042,1.98307 1.51562,2.97461 0.41146,1.01758 0.82292,2.03516 1.23438,3.05274 0.19531,0.7539 0.39062,1.50781 0.58594,2.26171 0.23372,1.06511 0.46744,2.13021 0.70117,3.19532 0.15495,1.03125 0.30989,2.0625 0.46484,3.09375 0.1224,1.10091 0.24479,2.20182 0.36719,3.30273 0.11198,1.10742 0.22396,2.21484 0.33594,3.32227 0.13281,1.38606 0.26562,2.77213 0.39844,4.1582 0.15299,1.66276 0.30598,3.32552 0.45898,4.98828 0.10221,1.04362 0.20443,2.08724 0.30664,3.13086 0.35547,0.88281 0.71094,1.76563 1.06641,2.64844 0.31966,0.44466 0.63932,0.88932 0.95898,1.33398 0.97005,0.57617 1.9401,1.15235 2.91016,1.72852 0.13411,0.0768 0.26823,0.15364 0.40234,0.23047 0.83919,0.24935 1.67839,0.49869 2.51758,0.74804 1.08138,0.18881 2.16276,0.37761 3.24414,0.56641 1.09635,0.14974 2.19271,0.29948 3.28906,0.44922 1.14844,0.12109 2.29688,0.24219 3.44531,0.36328 1.1211,0.0885 2.24219,0.17708 3.36329,0.26563 1.10677,0.0566 2.21354,0.11328 3.32031,0.16992 1.10937,0.005 2.21875,0.009 3.32812,0.0137 1.10091,-0.0462 2.20183,-0.0925 3.30274,-0.13867 1.03515,-0.0918 2.07031,-0.1836 3.10547,-0.27539 0.98763,-0.14388 1.97526,-0.28776 2.96289,-0.43164 0.60872,-0.15886 1.21744,-0.31771 1.82617,-0.47657 0.84375,-0.35612 1.6875,-0.71224 2.53125,-1.06836 0.65364,-0.3776 1.30729,-0.7552 1.96094,-1.13281 0.65169,-0.50065 1.30338,-1.0013 1.95507,-1.50195 0.39909,-0.40235 0.79818,-0.80469 1.19727,-1.20703 0.57943,-0.72266 1.15885,-1.44532 1.73828,-2.16797 0.32487,-0.63216 0.64974,-1.26432 0.97461,-1.89649 0.23112,-0.67643 0.46224,-1.35286 0.69336,-2.02929 0.15365,-0.84896 0.30729,-1.69792 0.46094,-2.54688 -0.0449,-0.95963 -0.0899,-1.91927 -0.13477,-2.8789 -0.25065,-0.93295 -0.5013,-1.86589 -0.75195,-2.79883 -0.92383,-2.6211 -1.84766,-5.24219 -2.77149,-7.86328 -0.29427,-0.84831 -0.58854,-1.69662 -0.88281,-2.54493 -0.20508,-1.01106 -0.41015,-2.02213 -0.61523,-3.0332 -0.0208,-0.97526 -0.0417,-1.95052 -0.0625,-2.92578 0.19987,-1.03711 0.39974,-2.07422 0.59961,-3.11133 0.33007,-0.81185 0.66015,-1.6237 0.99023,-2.43555 0.53386,-0.95963 1.06771,-1.91927 1.60156,-2.8789 0.54753,-0.95638 1.09506,-1.91276 1.64258,-2.86914 0.67542,-1.16386 1.3496,-2.32844 2.02574,-3.49187 1.62554,-2.78526 3.25107,-5.57053 4.87661,-8.35579 0.57031,-0.99674 1.14062,-1.99349 1.71093,-2.99023 0.528,-0.97591 1.05599,-1.95183 1.58399,-2.92774 0.51692,-1.00651 1.03385,-2.01302 1.55078,-3.01953 0.48568,-0.99544 0.97135,-1.99088 1.45703,-2.98633 1.01023,-2.11818 2.0228,-4.23524 3.02979,-6.35497 0.30133,-0.63133 0.59568,-1.26606 0.91405,-1.88908 0.36052,-0.72204 0.72103,-1.44407 1.08155,-2.1661 0.55925,-0.95768 1.11849,-1.91537 1.67773,-2.87305 0.32162,-0.52539 0.64323,-1.05078 0.96485,-1.57617 0.63411,-0.79753 1.26823,-1.59505 1.90234,-2.39258 0.84115,-0.70898 1.68229,-1.41797 2.52344,-2.12695 1.49023,-1.14453 2.98047,-2.28907 4.4707,-3.4336 -0.42513,-0.54948 -0.85026,-1.09895 -1.27539,-1.64843 l -0.0469,-0.008 z" /><path
         style="fill:#000000"
         id="path1445"
         d="m 269.60156,339.80273 0.004,-0.002 c -0.50326,0.0651 -1.00651,0.13021 -1.50977,0.19531 -1.11588,0.28125 -2.23177,0.5625 -3.34765,0.84375 -1.08269,0.24284 -2.16537,0.48568 -3.24805,0.72852 -0.96206,0.35493 -1.92552,0.70899 -2.88672,1.06445 l -0.0254,0.0215 -0.004,0.0586 0.0352,0.0469 0.006,0.0469 -0.0371,0.0742 0.004,0.0352 0.0273,0.0254 0.0684,0.0234 0.0625,0.0391 0.002,0.0644 -0.0332,0.0625 0.008,0.0566 0.1211,0.0488 c 0.36393,0.5039 0.72786,1.00781 1.09179,1.51172 0.20443,0.16731 0.40886,0.33463 0.61328,0.50195 l 0.14454,0.0625 0.15234,-0.0117 0.13672,-0.0723 c 0.11523,-0.12891 0.23047,-0.25782 0.3457,-0.38672 0.29037,-0.21094 0.58073,-0.42188 0.87109,-0.63282 0.57357,-0.34309 1.14714,-0.68619 1.72071,-1.02929 1.36914,-0.5918 2.73828,-1.1836 4.10742,-1.77539 1.15495,-0.49024 2.3099,-0.98047 3.46484,-1.47071 -0.3164,-0.0482 -0.63281,-0.0963 -0.94921,-0.14453 -0.31511,0.005 -0.63021,0.009 -0.94532,0.0137 z" /><path
         style="fill:#000000"
         id="path1447"
         d="m 259,342.85742 -0.0605,0.0703 -0.0352,0.084 -0.004,0.18276 -2e-5,8.3e-4 c 0.0325,0.13933 0.0651,0.27865 0.0977,0.41797 0.12109,0.24479 0.24218,0.48958 0.36328,0.73438 0.11198,0.19596 0.22396,0.39192 0.33594,0.58789 0.12955,0.18424 0.25911,0.36849 0.38867,0.55273 0.15169,0.16667 0.30338,0.33333 0.45508,0.5 l 0.13671,0.0879 0.002,0.002 0.16211,0.0274 h 0.002 c 0.0608,0.019 0.11959,0.0666 0.18945,0.043 l 0.0391,-0.043 0.0176,-0.0645 0.0274,-0.0508 0.0684,-0.0156 c 0.24657,-0.0891 0.4868,-0.19629 0.73857,-0.27052 0.51655,-0.16839 1.03584,-0.32985 1.56558,-0.45198 0.34262,-0.0847 0.68525,-0.16937 1.02788,-0.25406 0.30729,-0.0605 0.61458,-0.1211 0.92187,-0.18164 1.10887,-0.18261 2.22766,-0.29272 3.34281,-0.42832 0.32831,-0.0459 0.66014,-0.0538 0.99025,-0.0803 0.48147,-0.0289 0.96203,-0.0757 1.44447,-0.0854 0.43353,-0.0142 0.86707,-0.0285 1.3006,-0.0427 1.07875,0.0253 2.15669,0.0753 3.23387,0.13808 0.75277,0.0412 1.50554,0.0824 2.25832,0.12364 0.1289,-0.026 0.25781,-0.0521 0.38671,-0.0781 -0.32161,-0.1263 -0.64322,-0.2526 -0.96484,-0.3789 -0.30924,-0.0293 -0.61849,-0.0586 -0.92773,-0.0879 -0.59211,-0.0352 -1.18456,-0.0632 -1.77735,-0.084 -1.1276,-0.0736 -2.25521,-0.14714 -3.38281,-0.2207 -1.11654,-0.082 -2.23307,-0.16407 -3.34961,-0.2461 -1.1427,-0.0923 -2.28569,-0.18112 -3.42821,-0.27567 -0.88591,-0.0774 -1.77182,-0.15476 -2.65773,-0.23214 -0.70768,-10e-4 -1.41536,-0.003 -2.12304,-0.004 -0.26172,0.008 -0.52344,0.0156 -0.78516,0.0234 z" /></g></g></svg>
