<?xml version="1.0" encoding="UTF-8" standalone="no"?>
<!-- Created with Inkscape (http://www.inkscape.org/) -->

<svg
   width="500"
   height="500"
   viewBox="0 0 500 500"
   version="1.1"
   id="SVGRoot"
   sodipodi:docname="shoes.svg"
   xml:space="preserve"
   inkscape:export-filename="shoes.svg"
   inkscape:export-xdpi="96"
   inkscape:export-ydpi="96"
   inkscape:version="1.2.1 (9c6d41e410, 2022-07-14)"
   xmlns:inkscape="http://www.inkscape.org/namespaces/inkscape"
   xmlns:sodipodi="http://sodipodi.sourceforge.net/DTD/sodipodi-0.dtd"
   xmlns="http://www.w3.org/2000/svg"
   xmlns:svg="http://www.w3.org/2000/svg"><sodipodi:namedview
     id="namedview364"
     pagecolor="#ffffff"
     bordercolor="#666666"
     borderopacity="1"
     inkscape:showpageshadow="0"
     inkscape:pageopacity="0"
     inkscape:pagecheckerboard="0"
     inkscape:deskcolor="#000000"
     inkscape:document-units="px"
     showgrid="false"
     inkscape:zoom="5.6568544"
     inkscape:cx="313.86701"
     inkscape:cy="406.93994"
     inkscape:window-width="1920"
     inkscape:window-height="1017"
     inkscape:window-x="1912"
     inkscape:window-y="-8"
     inkscape:window-maximized="1"
     inkscape:current-layer="shoes"
     inkscape:pageshadow="0" /><defs
     id="defs359"><inkscape:path-effect
       effect="bspline"
       id="path-effect7315"
       is_visible="true"
       lpeversion="1"
       weight="33.333333"
       steps="2"
       helper_size="0"
       apply_no_weight="true"
       apply_with_weight="true"
       only_selected="false" /><inkscape:path-effect
       effect="bspline"
       id="path-effect7311"
       is_visible="true"
       lpeversion="1"
       weight="33.333333"
       steps="2"
       helper_size="0"
       apply_no_weight="true"
       apply_with_weight="true"
       only_selected="false" /></defs><g
     inkscape:groupmode="layer"
     id="shoes"
     inkscape:label="shoes"
     style="display:inline"><g
       id="textures"
       inkscape:label="textures"
       style="display:inline"><path
         style="fill:#000000;fill-opacity:0.0037037"
         d="m 156.56565,405.9386 c -0.70768,1.11998 -1.12016,3.35915 -2.38706,5.86319 -1.2669,2.50405 -3.38818,5.2735 -5.65681,8.01352 -2.26863,2.74002 -4.68453,5.45054 -6.24614,7.48364 -1.56161,2.03311 -2.2687,3.38837 -2.65164,4.68503 -0.38294,1.29666 -0.44186,2.53408 0.0301,3.68317 0.47192,1.1491 1.47363,2.20973 3.18261,3.09329 1.70898,0.88355 4.12488,1.59064 6.36399,1.9735 2.23911,0.38286 4.30146,0.44178 7.4833,-0.14759 3.18184,-0.58938 7.48332,-1.82679 11.46071,-3.32942 3.97739,-1.50262 7.63071,-3.27036 10.69461,-5.62726 3.0639,-2.3569 5.53873,-5.30313 8.10217,-7.66029 2.56345,-2.35717 5.21504,-4.1249 6.92367,-6.0691 1.70863,-1.94421 2.47465,-4.06549 2.79888,-6.15712 0.32422,-2.09163 0.20637,-4.15399 -0.61837,-4.89118 -0.82473,-0.73719 -2.35676,-0.14794 -4.86086,-0.0299 -2.50409,0.11801 -5.98063,-0.23554 -10.01708,-0.64802 -4.03645,-0.41248 -8.63255,-0.88388 -12.37439,-1.11964 -3.74185,-0.23576 -6.62915,-0.23576 -8.57371,-0.23576 -1.94455,0 -2.94626,0 -3.65394,1.11998 z"
         id="path7309"
         inkscape:path-effect="#path-effect7311"
         inkscape:original-d="m 156.27059,404.81862 c -0.41147,2.24017 -0.82395,4.47934 -1.23743,6.71752 -2.12036,2.77055 -4.24164,5.54 -6.36396,8.3085 -2.415,2.71163 -4.8309,5.42215 -7.24785,8.13173 -0.70612,1.35631 -1.41321,2.71157 -2.12132,4.06586 -0.0579,1.23846 -0.11685,2.47588 -0.17677,3.71231 1.00275,1.06168 2.00446,2.12232 3.0052,3.18198 2.417,0.70812 4.8329,1.41522 7.24784,2.12132 2.06344,0.0599 4.12579,0.11885 6.18719,0.17678 4.30265,-1.23646 8.60413,-2.47387 12.9047,-3.71231 3.65445,-1.7668 7.30777,-3.53453 10.96015,-5.3033 2.47592,-2.94534 4.95075,-5.89156 7.42462,-8.83884 2.65271,-1.7668 5.3043,-3.53453 7.95495,-5.3033 0.76705,-2.12036 1.53307,-4.24164 2.2981,-6.36396 -0.11685,-2.06143 -0.2347,-4.12379 -0.35355,-6.18718 -1.5311,0.59027 -3.06313,1.17951 -4.5962,1.76777 -3.47567,-0.35256 -6.95221,-0.70611 -10.42982,-1.06066 -4.59529,-0.47042 -9.19139,-0.94181 -13.78858,-1.41422 -2.88641,10e-4 -5.77371,10e-4 -8.66206,0 -1.00076,10e-4 -2.00247,10e-4 -3.00521,0 z" /><path
         style="fill:#000000;fill-opacity:0"
         d="m 288.54275,411.46427 c 0.87484,2.54725 2.16645,4.08885 3.72908,4.96339 1.56263,0.87454 3.39589,1.08287 4.85401,2.23447 1.45813,1.1516 2.54144,3.24531 4.2084,5.02114 1.66696,1.77584 3.91691,3.23414 6.97946,4.50477 3.06256,1.27064 6.93748,2.35395 11.66663,3.02048 4.72915,0.66652 10.31237,0.91652 14.89558,0.6039 4.5832,-0.31262 8.16646,-1.1876 10.70775,-2.52082 2.54128,-1.33322 4.04125,-3.12485 4.27098,-4.45778 0.22974,-1.33294 -0.8119,-2.20792 -3.74942,-4.37467 -2.93752,-2.16675 -7.77077,-5.62502 -11.22927,-8.74989 -3.45849,-3.12487 -5.54179,-5.91648 -6.53703,-7.93743 -0.99525,-2.02095 -0.9015,-3.27089 -0.90672,-3.40632 -0.005,-0.13544 -0.10938,0.84366 -4.11108,1.87843 -4.0017,1.03477 -11.9011,2.126 -18.64531,2.06335 -6.74422,-0.0626 -12.33387,-1.27984 -17.92247,-2.4968 0.45722,3.55275 0.91456,7.10653 1.78941,9.65378 z"
         id="path7313"
         inkscape:path-effect="#path-effect7315"
         inkscape:original-d="m 288.12499,412.46874 c 1.2927,1.5427 2.58431,3.0843 3.875,4.625 1.83437,0.20934 3.66763,0.41766 5.5,0.625 1.08436,2.0948 2.16767,4.1885 3.25,6.28125 2.25105,1.45936 4.501,2.91767 6.75,4.375 3.87608,1.08435 7.751,2.16767 11.625,3.25 5.58445,0.251 11.16767,0.501 16.75,0.75 3.58441,-0.87402 7.16767,-1.749 10.75,-2.625 1.50103,-1.7907 3.001,-3.58233 4.5,-5.375 -1.04069,-0.87402 -2.08233,-1.749 -3.125,-2.625 -4.83243,-3.4574 -9.66567,-6.91567 -14.5,-10.375 -2.08237,-2.79072 -4.16566,-5.58233 -6.25,-8.375 0.0947,-1.24903 0.1885,-2.49897 0.28125,-3.75 -0.10317,0.9802 -0.20733,1.9593 -0.3125,2.9375 -7.89917,1.09234 -15.79857,2.18357 -23.69959,3.27389 -5.58772,-1.21599 -16.76581,-3.65089 -16.76581,-3.65089 0,0 0.91542,7.10642 1.37165,10.65825 z"
         sodipodi:nodetypes="ccccccccccccccccc" /></g><g
       id="outlines"
       inkscape:label="outlines"><path
         style="display:inline;fill:#000000"
         id="path1478"
         d="m 154.22851,405.48179 c 0.14233,0.30861 0.15518,0.65926 0.22401,0.98874 0.0683,0.55997 -0.0193,1.11873 -0.11516,1.6695 -0.14001,0.69538 -0.35585,1.37265 -0.6222,2.02907 -0.4247,0.92972 -0.96563,1.79947 -1.50948,2.66269 -0.56791,0.8711 -1.15994,1.72658 -1.77161,2.5675 -0.6085,0.8365 -1.2501,1.64713 -1.91217,2.44164 -0.6761,0.78772 -1.35041,1.57716 -2.06452,2.33087 -0.65283,0.73667 -1.37817,1.40286 -2.08589,2.08537 -0.62988,0.59606 -1.24984,1.20226 -1.87046,1.80785 -0.52137,0.51389 -1.02551,1.04246 -1.49887,1.60087 -0.46302,0.5748 -0.90977,1.16212 -1.33546,1.76508 -0.43839,0.58761 -0.81421,1.21752 -1.15345,1.86642 -0.28183,0.63056 -0.52268,1.27798 -0.73776,1.93397 -0.18584,0.59611 -0.31847,1.20731 -0.44219,1.81884 -0.0933,0.56515 -0.11496,1.14672 0.006,1.70985 0.0248,0.11564 0.0623,0.22821 0.0934,0.34232 0.2579,0.70099 0.69891,1.31567 1.12776,1.92101 0.47497,0.67511 0.97843,1.32921 1.52901,1.94427 0.50271,0.54253 1.01949,1.09042 1.63543,1.50779 0.13953,0.0946 0.28729,0.17631 0.43094,0.26446 1.03061,0.5166 2.15349,0.79715 3.27441,1.03813 1.23599,0.25371 2.48431,0.42966 3.74056,0.54086 1.34115,0.13604 2.68716,0.23178 4.03415,0.28514 0.22084,0.004 0.44165,0.0134 0.66252,0.0121 0.70302,-0.004 1.32362,-0.005 2.00759,-0.0697 0.68573,-0.0649 1.36307,-0.18736 2.04035,-0.30886 1.38791,-0.2515 2.7519,-0.61357 4.11311,-0.97893 1.26355,-0.34146 2.49796,-0.77531 3.71563,-1.25275 0.19657,-0.0829 0.39307,-0.16592 0.58972,-0.2486 0.40178,-0.16892 0.75178,-0.3093 1.1457,-0.49687 0.59558,-0.28359 1.17538,-0.60257 1.76464,-0.89903 1.16759,-0.6059 2.38063,-1.11707 3.58216,-1.65046 1.26543,-0.54364 2.54163,-1.06135 3.80311,-1.6142 1.08173,-0.48292 2.1256,-1.05506 3.08926,-1.74635 0.18459,-0.13242 0.36051,-0.27653 0.54077,-0.41479 1.0344,-0.80243 1.9273,-1.75716 2.79171,-2.73447 0.76975,-0.95682 1.53646,-1.91589 2.32308,-2.85914 0.67725,-0.82083 1.43161,-1.5726 2.20847,-2.29813 0.70626,-0.67077 1.46969,-1.27949 2.24633,-1.86618 0.94531,-0.69451 1.95599,-1.29018 2.93706,-1.93098 0.70028,-0.496 1.3924,-1.00863 2.01927,-1.5966 0.41094,-0.38543 0.49582,-0.49549 0.873,-0.91078 0.67469,-0.7961 1.23901,-1.67988 1.6659,-2.6326 0.0843,-0.18808 0.15686,-0.3812 0.23529,-0.5718 0.27831,-0.76598 0.50315,-1.55237 0.62252,-2.35959 0.0811,-0.5484 0.0824,-0.71723 0.12229,-1.27466 0.0469,-1.25749 0.0388,-2.51628 0.0415,-3.77443 -0.006,-0.82578 -0.0369,-1.65103 -0.0529,-2.47658 -0.0479,-0.55103 -3.165,-0.27999 -3.11709,0.27104 v 0 c 0.14704,0.76445 0.27116,1.53406 0.34535,2.30932 0.10583,1.1396 0.16279,2.2908 0.0367,3.43139 -0.14302,0.99981 -0.34107,1.99877 -0.69568,2.94734 -0.1499,0.35646 -0.21754,0.53783 -0.39636,0.88115 -0.30293,0.58159 -0.68349,1.12117 -1.10927,1.61879 -0.71615,0.80135 -1.50591,1.53271 -2.42104,2.10496 -0.50562,0.32269 -1.0112,0.64709 -1.5234,0.95927 -1.4316,0.87252 0.36899,-0.24211 -1.06453,0.62569 -0.17428,0.10551 -0.34511,0.21663 -0.51766,0.32495 -0.33148,0.22512 -0.62583,0.41636 -0.9407,0.66354 -0.56753,0.44554 -1.0743,0.96155 -1.59232,1.46173 -0.79773,0.82639 -1.55224,1.69086 -2.25724,2.59828 -0.73295,0.94191 -1.44644,1.90035 -2.24068,2.7924 -0.75933,0.86724 -1.55213,1.70867 -2.45804,2.42636 -0.24428,0.1847 -0.69568,0.53017 -0.94716,0.7035 -0.69123,0.47644 -1.43183,0.87903 -2.19379,1.22964 -1.26787,0.55507 -2.57643,1.00609 -3.85146,1.54396 -1.22968,0.53218 -2.43131,1.12144 -3.63903,1.70101 -1.12885,0.51587 -2.27438,0.99454 -3.41937,1.47322 -1.14231,0.45026 -2.29767,0.8676 -3.46787,1.23996 -1.26662,0.37736 -2.55424,0.68121 -3.86506,0.86023 -0.46808,0.0564 -0.7974,0.10057 -1.26546,0.13922 -0.40427,0.0334 -0.81062,0.0373 -1.21484,0.0712 -0.0197,0.002 0.0774,0.0139 0.0576,0.0147 -0.20814,0.009 -0.41659,0.006 -0.62488,0.009 -0.43927,-9.7e-4 -0.82784,0.002 -1.26717,-0.0131 -0.85772,-0.0288 -1.71085,-0.12714 -2.56411,-0.21367 -1.14692,-0.16924 -2.29872,-0.33045 -3.4243,-0.61341 -0.83667,-0.21512 -1.68767,-0.42913 -2.43965,-0.86997 -0.55855,-0.33181 -1.08159,-0.71965 -1.52327,-1.19974 -0.4535,-0.51008 -0.86282,-1.05496 -1.22073,-1.63696 -0.23026,-0.39693 -0.48146,-0.78606 -0.62129,-1.22697 -0.0199,-0.0575 -0.0468,-0.11262 -0.0647,-0.17081 -0.0574,-0.18642 -0.0177,-0.38863 -0.02,-0.57934 0.0592,-0.48461 0.13671,-0.96696 0.27956,-1.4351 0.15522,-0.51367 0.32577,-1.02512 0.56381,-1.50727 0.25751,-0.52846 0.54316,-1.04323 0.87222,-1.53094 0.39695,-0.54107 0.8352,-1.04794 1.27717,-1.55256 0.42913,-0.51389 0.85567,-1.03002 1.29518,-1.53514 0.56304,-0.63201 1.11777,-1.27194 1.71528,-1.87218 0.69166,-0.73737 1.38047,-1.47745 2.05958,-2.22643 0.71027,-0.8083 1.42829,-1.61019 2.10758,-2.44511 0.69051,-0.84227 1.38958,-1.68034 2.0105,-2.5762 0.62901,-0.88863 1.2508,-1.78337 1.81887,-2.71267 0.59006,-0.94452 1.17276,-1.8943 1.71385,-2.86794 0.0309,-0.0559 0.48841,-0.88107 0.51483,-0.93363 0.26427,-0.52552 0.451,-1.08759 0.59775,-1.65584 0.15105,-0.71057 0.21689,-1.43179 0.31135,-2.15129 0.0198,-0.097 0.042,-0.19356 0.0594,-0.29105 0.0449,-0.25225 0.0528,-0.52049 0.17453,-0.75189 0,-0.69073 -3.9074,-0.69073 -3.9074,0 z" /><path
         style="fill:#000000"
         id="path1506"
         d="m 285.18849,403.99714 c 0.50802,0.94256 0.6907,2.00914 0.78989,3.06354 0.22319,2.01374 0.27673,4.05226 0.68959,6.04088 0.20028,0.93882 0.53806,1.84608 1.01987,2.67723 0.48112,0.92208 1.20434,1.74367 2.15093,2.20243 1.14592,0.60869 2.46992,0.63365 3.72712,0.80123 0.78133,0.14506 1.64219,0.0928 2.38528,0.25661 0.55732,0.9127 1.16316,1.80725 1.74958,2.70594 0.59596,0.93373 1.30715,1.78271 2.02595,2.62274 0.94678,1.13267 1.89939,2.27538 3.03502,3.22601 1.4415,1.1687 3.12822,1.97514 4.82422,2.70117 1.66634,0.63329 3.41335,1.01675 5.14648,1.41797 2.37343,0.5004 4.7845,0.77899 7.19127,1.06152 3.10731,0.39446 6.23619,0.57567 9.3623,0.74485 1.43565,0.0756 2.87142,0.14774 4.30945,0.14875 2.17306,0.0116 4.34891,-0.0511 6.51198,-0.26957 1.40715,-0.16471 2.81137,-0.41147 4.15623,-0.86642 1.2872,-0.40972 2.53891,-0.94226 3.71382,-1.60909 1.21748,-0.73134 2.24266,-1.73305 3.19245,-2.7784 0.70968,-0.84095 1.37117,-1.81153 1.47195,-2.93834 0.1274,-1.11016 -0.40551,-2.22372 -1.24984,-2.93067 -1.46495,-1.36402 -3.19248,-2.39496 -4.85698,-3.49058 -2.58697,-1.65269 -5.20638,-3.25672 -7.73817,-4.99392 -1.87101,-1.3672 -3.65179,-2.86186 -5.2943,-4.49738 -1.44088,-1.474 -2.84856,-3.03016 -3.77602,-4.88934 -0.56083,-1.04476 -0.75165,-3.73689 -1.58398,-4.20899 -0.80045,-0.18669 -2.65813,1.04767 -2.9629,1.49568 0.14845,1.05681 0.4113,0.98318 0.814,1.9677 0.98681,2.15089 2.36591,4.10701 3.97583,5.83607 1.37172,1.47792 2.87799,2.82166 4.40439,4.13651 1.42794,1.19581 2.88758,2.35734 4.41404,3.42579 2.64911,1.90755 5.39953,3.67411 7.9855,5.66909 0.68769,0.62396 1.56139,1.06151 2.07617,1.85938 0.46411,0.57124 -0.26468,1.16746 -0.6252,1.57342 -0.67647,0.75415 -1.39029,1.50054 -2.28362,1.99991 -1.9649,1.0995 -4.15839,1.75405 -6.38907,2.02373 -1.85859,0.26606 -3.73912,0.33655 -5.61378,0.39911 -0.0467,-2.9e-4 -0.62089,0.0226 -0.1402,-8.7e-4 0.3059,-0.0232 -0.18367,0.009 -0.23233,-0.013 -4.39571,-0.19166 -8.79627,-0.35197 -13.17683,-0.7805 -2.16117,-0.22466 -4.31538,-0.52673 -6.44953,-0.93505 -1.93779,-0.38378 -3.83135,-0.97343 -5.6578,-1.72375 -1.24476,-0.53162 -2.43994,-1.20459 -3.45597,-2.10633 -1.33411,-1.14275 -2.35987,-2.58384 -3.43466,-3.96008 -0.84495,-1.16965 -1.51652,-2.45059 -2.21679,-3.70898 -0.61167,-1.0037 -1.73817,-1.62115 -2.89453,-1.72852 -1.28798,-0.15982 -2.59412,-0.15146 -3.87305,-0.38477 -0.98788,-0.21778 -1.92213,-0.82372 -2.35937,-1.75976 -0.52112,-1.04548 -0.72302,-2.21119 -0.91081,-3.35334 -0.22117,-1.54248 -0.25003,-3.10228 -0.36068,-4.65447 -0.17732,-1.56769 -0.80967,-2.17692 -1.595,-3.50235 -0.55601,-0.83029 -2.81455,0.30312 -1.9919,2.0268 z"
         sodipodi:nodetypes="ccccccccccccccccccccccccccccccccccccccccccccccccccccc" /></g></g></svg>
