<?xml version="1.0" encoding="UTF-8" standalone="no"?>
<!-- Created with Inkscape (http://www.inkscape.org/) -->

<svg
   width="500"
   height="500"
   viewBox="0 0 500 500"
   version="1.1"
   id="SVGRoot"
   xml:space="preserve"
   sodipodi:docname="tops.svg"
   inkscape:version="1.2.1 (9c6d41e410, 2022-07-14)"
   xmlns:inkscape="http://www.inkscape.org/namespaces/inkscape"
   xmlns:sodipodi="http://sodipodi.sourceforge.net/DTD/sodipodi-0.dtd"
   xmlns="http://www.w3.org/2000/svg"
   xmlns:svg="http://www.w3.org/2000/svg"><sodipodi:namedview
     id="namedview20"
     pagecolor="#ffffff"
     bordercolor="#999999"
     borderopacity="1"
     inkscape:showpageshadow="0"
     inkscape:pageopacity="0"
     inkscape:pagecheckerboard="0"
     inkscape:deskcolor="#d1d1d1"
     showgrid="false"
     inkscape:zoom="2.3673935"
     inkscape:cx="170.86302"
     inkscape:cy="262.31381"
     inkscape:window-width="1920"
     inkscape:window-height="1017"
     inkscape:window-x="1912"
     inkscape:window-y="-8"
     inkscape:window-maximized="1"
     inkscape:current-layer="torso" /><defs
     id="defs359"><inkscape:path-effect
       effect="bspline"
       id="path-effect956"
       is_visible="true"
       lpeversion="1"
       weight="33.333333"
       steps="2"
       helper_size="0"
       apply_no_weight="true"
       apply_with_weight="true"
       only_selected="false" /></defs><g
     id="torso"
     style="display:inline"><g
       id="textures"
       style="display:inline"><path
         style="fill:#000000;fill-opacity:0"
         d="m 154.68019,196.95884 c -1.82728,0.0293 -2.59331,0.79535 -3.00579,4.27252 -0.41249,3.47716 -0.47141,9.66422 -1.03132,14.1129 -0.5599,4.44868 -1.62054,7.1592 -5.24437,11.07749 -3.62383,3.9183 -9.81089,9.04472 -14.87859,13.75887 -5.06771,4.71415 -9.01565,9.01563 -11.40222,12.34522 -2.38658,3.32958 -3.21152,5.68656 -3.83018,9.39909 -0.61865,3.71252 -1.03112,8.78002 -0.88365,12.99336 0.14748,4.21333 0.85458,7.57202 2.09214,11.54956 1.23756,3.97755 3.0053,8.57365 4.36052,12.61008 1.35523,4.03642 2.29802,7.51296 4.36089,10.01701 2.06286,2.50405 5.24478,4.03608 9.34008,4.94917 4.09531,0.91309 9.10388,1.20772 13.61148,0.61831 4.5076,-0.5894 8.51445,-2.06251 11.28367,-3.62393 2.76922,-1.56142 4.30126,-3.21131 5.68664,-3.71187 1.38537,-0.50057 2.62279,0.14759 6.51194,2.12162 3.88915,1.97403 10.42976,5.2738 15.93929,7.15918 5.50953,1.88538 9.98778,2.35677 15.79205,3.24071 5.80426,0.88395 12.93411,2.18028 21.06587,2.94623 8.13177,0.76594 17.26505,1.00164 26.25122,0.67748 8.98617,-0.32416 17.82482,-1.20803 27.78342,-1.50259 9.95861,-0.29457 21.03639,6e-5 28.57875,-0.29467 7.54237,-0.29473 11.54923,-1.1786 16.20408,-3.88918 4.65484,-2.71057 9.95803,-7.24775 13.05218,-9.25083 3.09415,-2.00307 3.97802,-1.47275 5.3628,-0.76571 1.38478,0.70705 3.27037,1.59091 5.12647,2.09153 1.8561,0.50062 3.68275,0.61848 5.71571,0.7658 2.03296,0.14733 4.27209,0.3241 6.12785,-0.0591 1.85577,-0.38315 3.32888,-1.32594 4.06532,-2.50389 0.73644,-1.17794 0.73644,-2.59213 0.2357,-5.44998 -0.50074,-2.85784 -1.50246,-7.15932 -2.26849,-10.37078 -0.76603,-3.21146 -1.29635,-5.33274 -1.14924,-8.78013 0.14711,-3.44738 0.97205,-8.22025 0.943,-11.34313 -0.0291,-3.12289 -0.91291,-4.59599 -2.20913,-6.12818 -1.29621,-1.53219 -3.00502,-3.12315 -7.74862,-7.63102 -4.74359,-4.50787 -12.52161,-11.93235 -17.2653,-17.11772 -4.74369,-5.18538 -6.4525,-8.13159 -7.24836,-10.84231 -0.79586,-2.71072 -0.67801,-5.18555 -0.41288,-7.68998 0.26512,-2.50442 0.67759,-5.03818 0.79554,-7.71919 0.11795,-2.68102 -0.0588,-5.50939 -0.79504,-6.80635 -0.73622,-1.29697 -2.03256,-1.06127 -5.27357,-0.26578 -3.24101,0.79549 -8.42635,2.15075 -16.79379,3.41771 -8.36745,1.26696 -19.91663,2.44545 -31.67231,2.59284 -11.75568,0.14739 -23.71733,-0.73648 -37.47658,-2.35691 -13.75924,-1.62043 -29.31528,-3.97741 -41.63079,-6.30493 -12.31551,-2.32751 -21.38986,-4.62556 -27.37084,-6.12818 -5.98098,-1.50261 -8.86827,-2.2097 -10.69555,-2.18039 z"
         id="path13013" /></g><g
       id="outlines"><path
         style="fill:#000000"
         id="path1077"
         d="m 141.26367,229.11523 h -0.11133 l -0.10937,0.0449 -0.0293,0.008 c -1.27344,0.96159 -2.54687,1.92318 -3.82031,2.88476 -0.87695,0.66797 -1.75391,1.33594 -2.63086,2.00391 -0.86523,0.67708 -1.73047,1.35417 -2.5957,2.03125 -0.69532,0.57422 -1.39063,1.14844 -2.08594,1.72266 -0.85807,0.75911 -1.71615,1.51823 -2.57422,2.27734 -0.68555,0.62175 -1.37109,1.24349 -2.05664,1.86523 -0.78451,0.7767 -1.56901,1.55339 -2.35352,2.33008 -0.32552,0.33203 -0.65104,0.66407 -0.97656,0.9961 -0.51562,0.56836 -1.03125,1.13672 -1.54687,1.70508 -0.37761,0.45638 -0.75521,0.91276 -1.13282,1.36914 -0.27929,0.37955 -0.55859,0.75911 -0.83789,1.13867 -0.30338,0.44271 -0.60677,0.88541 -0.91015,1.32812 -0.55599,0.99545 -1.11198,1.99089 -1.66797,2.98633 -0.0859,0.15755 -0.17188,0.3151 -0.25781,0.47266 -0.17123,0.38737 -0.34245,0.77474 -0.51368,1.16211 -0.27213,0.6875 -0.54427,1.375 -0.8164,2.0625 -0.13281,0.44596 -0.26563,0.89192 -0.39844,1.33789 -0.13737,0.67057 -0.27474,1.34114 -0.41211,2.01172 -0.13672,1.09114 -0.27344,2.18229 -0.41016,3.27343 -0.0827,1.09831 -0.16536,2.19662 -0.24804,3.29493 -0.0677,1.11783 -0.13542,2.23567 -0.20313,3.35351 -0.0351,0.81641 -0.0703,1.63281 -0.10547,2.44922 0.0254,1.13607 0.0508,2.27213 0.0762,3.4082 0.0436,0.79558 0.0872,1.59115 0.13086,2.38672 0.0534,0.46875 0.10677,0.9375 0.16015,1.40625 0.13998,0.73047 0.27995,1.46094 0.41992,2.19141 0.21224,0.77799 0.42448,1.55599 0.63672,2.33398 0.0697,0.22656 0.13933,0.45313 0.20899,0.67969 0.41015,1.07096 0.82031,2.14193 1.23047,3.21289 0.0918,0.2474 0.18359,0.49479 0.27539,0.74219 0.44075,1.02148 0.88151,2.04297 1.32226,3.06445 0.43815,1.07227 0.8763,2.14453 1.31446,3.2168 0.41406,1.05468 0.82812,2.10937 1.24218,3.16406 0.12956,0.3431 0.25912,0.6862 0.38867,1.0293 0.0957,0.30338 0.19141,0.60677 0.28711,0.91015 0.13933,0.54427 0.27865,1.08854 0.41797,1.63282 0.24219,1.10872 0.48438,2.21744 0.72657,3.32617 0.15494,0.67448 0.30989,1.34896 0.46484,2.02343 0.0677,0.23503 0.13542,0.47006 0.20312,0.70508 0.10743,0.278 0.21485,0.55599 0.32227,0.83399 0.14193,0.27018 0.28385,0.54036 0.42578,0.81054 0.17969,0.27735 0.35938,0.55469 0.53906,0.83204 0.1849,0.20638 0.36979,0.41276 0.55469,0.61914 0.30404,0.26367 0.60807,0.52734 0.91211,0.79101 0.58008,0.38086 1.16016,0.76172 1.74023,1.14258 0.88282,0.4362 1.76563,0.8724 2.64844,1.30859 0.2168,0.0853 0.4336,0.17058 0.65039,0.25586 0.2793,0.0872 0.5586,0.17448 0.83789,0.26172 1.06901,0.26237 2.13802,0.52474 3.20703,0.78711 0.30404,0.0632 0.60808,0.1263 0.91211,0.18945 1.0625,0.16537 2.125,0.33073 3.1875,0.4961 0.69141,0.0697 1.38282,0.13932 2.07422,0.20898 0.50912,0.0156 1.01823,0.0312 1.52735,0.0469 1.10742,-0.0156 2.21484,-0.0312 3.32226,-0.0469 1.11739,-0.05 2.23366,-0.12099 3.34943,-0.19872 0.48118,-0.0327 0.96236,-0.0654 1.44354,-0.0982 0.4655,-0.0697 0.93099,-0.13933 1.39648,-0.20899 0.26498,-0.0534 0.52995,-0.10677 0.79493,-0.16015 0.69987,-0.20899 1.39974,-0.41797 2.09961,-0.62696 1.29098,-0.5183 2.58222,-1.03597 3.87304,-1.55468 0.57012,-0.24492 1.12532,-0.52268 1.68857,-0.78271 0.23442,-0.10144 0.45247,-0.23531 0.67866,-0.35305 0.2897,-0.15657 0.5794,-0.31314 0.8691,-0.46971 0.46485,-0.31641 0.92969,-0.63281 1.39453,-0.94922 0.22656,-0.19141 0.45313,-0.38281 0.67969,-0.57422 0.16406,-0.17448 0.32812,-0.34896 0.49219,-0.52344 0.26041,-0.31315 0.52083,-0.6263 0.78125,-0.93945 0.48958,-0.69206 0.97916,-1.38412 1.46875,-2.07617 0.082,-0.14518 0.16406,-0.29037 0.24609,-0.43555 l 0.0466,-0.17676 2.6e-4,-9.7e-4 0.002,-0.01 -0.0176,-0.18164 v -0.008 l -0.0682,-0.1696 -1.3e-4,-3.2e-4 -0.01,-0.0215 -0.10352,-0.15039 -0.0117,-0.0176 -0.125,-0.13281 c -0.095,-0.0768 -0.17839,-0.16814 -0.28515,-0.23047 -0.17773,-0.099 -0.35547,-0.19791 -0.53321,-0.29687 -0.11904,-0.0405 -0.23139,-0.10076 -0.35713,-0.1215 -0.1239,-0.0349 -0.25114,-0.0574 -0.37529,-0.0914 l -0.0586,0.008 -0.0586,0.002 -0.0566,-0.0293 -0.13086,-0.0137 -0.12304,0.0156 -0.0449,0.004 -0.17381,0.0566 h -1e-5 l -0.0215,0.008 -0.15039,0.10351 -0.008,0.004 c -0.0769,0.0944 -0.12658,0.21084 -0.23047,0.2832 -0.71615,0.89388 -1.43229,1.78776 -2.14844,2.68164 l -0.0937,0.11328 c -0.17708,0.15235 -0.35416,0.30469 -0.53125,0.45703 -0.21093,0.14974 -0.42187,0.29948 -0.63281,0.44922 -0.20768,0.11654 -0.41536,0.23308 -0.62305,0.34961 -1.01953,0.45183 -2.03906,0.90365 -3.05859,1.35547 -1.12044,0.48307 -2.24089,0.96615 -3.36133,1.44922 -0.31706,0.11003 -0.63411,0.22005 -0.95117,0.33008 -0.36719,0.0885 -0.73438,0.17708 -1.10156,0.26562 -0.57292,0.0658 -1.14584,0.13151 -1.71875,0.19727 -0.55339,0.041 -1.10677,0.082 -1.66016,0.12305 -1.25195,0.0547 -2.50391,0.10937 -3.75586,0.16406 -0.74023,0.0182 -1.48047,0.0365 -2.2207,0.0547 l 0.1289,-0.0117 c -0.46093,-0.0228 -0.92187,-0.0456 -1.38281,-0.0684 -0.71289,-0.0762 -1.42578,-0.15235 -2.13867,-0.22852 -0.70378,-0.10807 -1.40755,-0.21614 -2.11133,-0.32422 -1.10677,-0.23242 -2.21354,-0.46484 -3.32031,-0.69726 -0.37891,-0.0944 -0.75781,-0.1888 -1.13672,-0.28321 -0.32682,-0.1276 -0.65365,-0.2552 -0.98047,-0.38281 -0.46289,-0.21159 -0.92578,-0.42317 -1.38867,-0.63476 -0.47201,-0.26042 -0.94401,-0.52084 -1.41602,-0.78125 -0.2552,-0.16667 -0.51041,-0.33334 -0.76562,-0.5 -0.14909,-0.10938 -0.29818,-0.21875 -0.44727,-0.32813 -0.13606,-0.12565 -0.27213,-0.2513 -0.4082,-0.37695 -0.13712,-0.21045 -0.29069,-0.41038 -0.41455,-0.6293 -0.0944,-0.16557 -0.20678,-0.32124 -0.28244,-0.4971 -0.0471,-0.088 -0.0796,-0.18268 -0.11942,-0.27399 -0.0688,-0.21505 -0.15254,-0.42547 -0.20776,-0.64471 -0.0904,-0.31097 -0.17211,-0.62433 -0.25513,-0.93732 -0.23828,-1.08529 -0.47656,-2.17058 -0.71484,-3.25586 -0.16992,-0.72526 -0.33984,-1.45052 -0.50977,-2.17578 -0.14908,-0.51758 -0.29817,-1.03516 -0.44726,-1.55274 -0.35482,-0.9694 -0.70964,-1.9388 -1.06445,-2.9082 -0.43425,-1.07031 -0.86849,-2.14063 -1.30274,-3.21094 -0.55469,-1.34375 -1.10937,-2.6875 -1.66406,-4.03125 -0.4082,-1.02083 -0.81641,-2.04167 -1.22461,-3.0625 -0.1263,-0.32096 -0.2526,-0.64193 -0.37891,-0.96289 -0.30534,-0.97266 -0.61067,-1.94531 -0.91601,-2.91797 -0.0911,-0.45703 -0.18229,-0.91406 -0.27344,-1.37109 -0.0625,-0.40039 -0.125,-0.80078 -0.1875,-1.20117 -0.0579,-0.55274 -0.11589,-1.10547 -0.17383,-1.65821 -0.0417,-0.69401 -0.0833,-1.38802 -0.125,-2.08203 -0.0182,-0.84896 -0.0365,-1.69791 -0.0547,-2.54687 0.0632,-1.23112 0.12631,-2.46224 0.18946,-3.69336 0.0814,-1.10222 0.16276,-2.20443 0.24414,-3.30664 0.0599,-0.72136 0.11979,-1.44271 0.17969,-2.16407 0.0853,-0.71419 0.17057,-1.42838 0.25585,-2.14257 0.13607,-0.73438 0.27214,-1.46875 0.40821,-2.20313 0.0736,-0.26497 0.14713,-0.52995 0.2207,-0.79492 0.13867,-0.37891 0.27735,-0.75781 0.41602,-1.13672 0.22591,-0.55404 0.45182,-1.10807 0.67773,-1.66211 0.26823,-0.5293 0.53646,-1.05859 0.80469,-1.58789 0.33073,-0.5918 0.66146,-1.18359 0.99219,-1.77539 0.30273,-0.44531 0.60547,-0.89063 0.9082,-1.33594 0.28125,-0.37435 0.5625,-0.7487 0.84375,-1.12304 0.7168,-0.83399 1.43359,-1.66797 2.15039,-2.50196 0.24544,-0.2806 0.49089,-0.5612 0.73633,-0.84179 0.49544,-0.50326 0.99088,-1.00651 1.48633,-1.50977 0.55468,-0.5293 1.10937,-1.05859 1.66406,-1.58789 0.83854,-0.73958 1.67708,-1.47917 2.51562,-2.21875 0.73243,-0.61979 1.46485,-1.23958 2.19727,-1.85938 0.89062,-0.70898 1.78125,-1.41796 2.67187,-2.12695 0.86654,-0.68099 1.73308,-1.36198 2.59961,-2.04297 0.88412,-0.6862 1.76823,-1.37239 2.65235,-2.05859 0.67643,-0.53776 1.35286,-1.07552 2.02929,-1.61328 0.28519,-0.31703 0.57011,-0.63431 0.85547,-0.95117 l 0.0254,-0.0371 0.008,-0.0977 v -0.002 -0.002 l 0.0508,-0.043 v -0.041 l -0.0488,-0.17578 -0.0176,-0.0664 c -0.0547,-0.10937 -0.0928,-0.22705 -0.16406,-0.32812 -0.0707,-0.1 -0.12798,-0.20943 -0.21218,-0.29984 l -7.1e-4,-9.4e-4 c -0.11979,-0.13477 -0.23959,-0.26954 -0.35938,-0.4043 -0.18815,-0.14388 -0.3763,-0.28776 -0.56445,-0.43164 -0.11979,-0.0573 -0.23958,-0.11459 -0.35938,-0.17188 l -0.17723,-0.0448 c -0.0863,-0.0218 -0.16982,-0.0622 -0.26222,-0.0294 z" /><path
         style="fill:#000000"
         id="path1087"
         d="m 151.41211,196.45703 c -0.29297,0.0677 -0.58594,0.13542 -0.87891,0.20313 -0.10481,0.0658 -0.20963,0.13151 -0.31445,0.19726 v 0.002 h -0.002 l -0.0684,0.0996 -0.0117,0.0312 0.0117,0.0312 0.0195,0.0645 -0.002,0.004 -0.0586,0.0234 c -0.008,0.1888 -0.0156,0.37761 -0.0234,0.56641 -0.026,0.15299 -0.0521,0.30599 -0.0781,0.45898 -0.0298,0.93022 -0.0554,1.86053 -0.0681,2.79116 -0.0245,1.11307 -0.057,2.22596 -0.0845,3.33896 -0.0329,1.1086 -0.073,2.21699 -0.10859,3.32551 -0.0332,1.0337 -0.0752,2.06706 -0.12676,3.10001 -0.0398,0.86858 -0.0869,1.73677 -0.14301,2.60446 -0.071,1.05059 -0.15635,2.10022 -0.23278,3.15045 -0.0143,0.18164 -0.0286,0.36328 -0.043,0.54492 -0.11654,0.48242 -0.23307,0.96484 -0.34961,1.44727 -0.0846,0.29492 -0.16927,0.58984 -0.25391,0.88476 -0.22457,0.66322 -0.44808,1.3268 -0.67773,1.98828 -0.27083,0.50782 -0.54167,1.01563 -0.8125,1.52344 -0.32357,0.39779 -0.64714,0.79557 -0.9707,1.19336 -0.21467,0.23357 -0.42522,0.4711 -0.65502,0.69017 -0.78762,0.78103 -1.58079,1.55648 -2.37049,2.33541 -1.19397,1.17507 -2.38794,2.35014 -3.58192,3.5252 l -0.10546,0.14844 -0.008,0.01 -0.0488,0.17579 -0.002,0.006 -0.0117,0.0937 0.0176,0.0918 v 0.0234 c 0.0794,0.19596 0.15885,0.39193 0.23828,0.58789 0.15625,0.19466 0.3125,0.38932 0.46875,0.58398 0.18815,0.14519 0.3763,0.29037 0.56445,0.43555 0.1556,0.0618 0.3112,0.1237 0.4668,0.18555 l 0.12305,0.002 0.17187,0.002 0.0957,-0.0391 c 0.58167,-0.51643 1.17179,-1.02348 1.73903,-1.55592 0.4965,-0.45727 0.99299,-0.91454 1.48948,-1.37181 0.81511,-0.80274 1.63021,-1.60547 2.44532,-2.40821 0.45507,-0.45182 0.91015,-0.90364 1.36523,-1.35546 0.13086,-0.13933 0.26172,-0.27865 0.39258,-0.41797 0.39117,-0.52156 0.79169,-1.03617 1.17383,-1.56446 0.16341,-0.31119 0.32682,-0.62239 0.49023,-0.93359 0.34049,-0.74349 0.68099,-1.48698 1.02148,-2.23047 0.0391,-0.1199 0.098,-0.2334 0.11738,-0.3597 0.19604,-0.71796 0.39178,-1.43599 0.5877,-2.15397 0.0887,-0.56425 0.17664,-1.12862 0.24913,-1.69524 0.0683,-0.49019 0.12664,-0.98171 0.17079,-1.47468 0.0651,-1.10547 0.13021,-2.21094 0.19532,-3.31641 0.0612,-1.51107 0.12239,-3.02213 0.18359,-4.5332 0.0443,-1.22591 0.0885,-2.45182 0.13281,-3.67774 0.0306,-1.01302 0.0612,-2.02604 0.0918,-3.03906 -0.0254,-1.13737 -0.0508,-2.27474 -0.0762,-3.41211 l -0.0234,-0.1813 c -0.01,-0.0765 -0.0167,-0.15469 -0.0625,-0.22104 l -0.11523,-0.14063 -0.0176,-0.0215 -0.0762,-0.0703 -0.0937,-0.0488 -0.0625,-0.0332 -0.0703,-0.0156 -0.0684,-0.0176 -0.0586,-0.043 c -0.11965,-0.0308 -0.23275,-0.0871 -0.35894,-0.0925 -0.1508,-0.0212 -0.30248,-0.0366 -0.45356,-0.0559 -0.13151,0.003 -0.26302,0.007 -0.39453,0.01 z" /><path
         style="fill:#000000"
         id="path1127"
         d="m 175.64453,257.85547 c -0.0896,1.06657 -0.19648,2.13252 -0.241,3.20218 -0.0244,1.04814 -0.13304,2.09305 -0.33517,3.12204 -0.18965,0.99679 -0.47652,1.97326 -0.84467,2.91853 -0.36088,0.89295 -0.81087,1.7522 -1.36823,2.53873 -0.5638,0.80918 -1.25004,1.5338 -2.01663,2.15358 -0.87621,0.71882 -1.87404,1.26702 -2.86272,1.81303 -0.90482,0.49599 -1.80106,1.01048 -2.65717,1.58714 -0.95514,0.63505 -1.80388,1.41462 -2.56503,2.27024 -0.75479,0.85127 -1.41665,1.81408 -1.74623,2.91331 -0.31618,1.00221 -0.34053,2.06621 -0.31944,3.1089 -4.9e-4,1.05987 0.0642,2.11823 0.10154,3.17715 0.0529,1.31049 0.11312,2.6209 0.21287,3.92878 0.0596,1.03767 0.26102,2.05985 0.461,3.07774 0.20812,1.06159 0.42773,2.12122 0.68341,3.1725 0.24074,1.00194 0.45415,2.01065 0.71006,3.0088 0.26307,0.98222 0.53826,1.96377 0.71988,2.965 0.21872,1.01764 0.11327,2.09339 -0.25431,3.06393 -0.31214,0.89236 -0.94206,1.61954 -1.3957,2.43787 -0.17972,0.33394 -0.41326,0.65993 -0.48168,1.0386 0.0348,0.42905 0.46839,0.68672 0.82422,0.8457 0.55749,0.1912 1.19945,0.32739 1.75977,0.0781 0.36585,-0.17841 0.28912,-0.64484 0.51172,-0.93164 0.56147,-0.95032 1.16531,-1.89431 1.49477,-2.9561 0.29961,-0.89377 0.34143,-1.85585 0.2682,-2.78929 -0.0667,-1.00862 -0.32585,-1.99095 -0.54202,-2.97482 -0.22243,-1.03154 -0.49734,-2.05044 -0.78925,-3.06422 -0.30903,-1.10267 -0.58795,-2.21376 -0.83122,-3.33282 -0.24651,-1.06939 -0.40073,-2.15687 -0.53139,-3.24568 -0.14445,-1.03838 -0.18989,-2.08668 -0.22498,-3.13347 -0.0557,-1.43736 -0.10949,-2.8748 -0.16443,-4.31219 0.002,-0.86701 0.002,-1.74962 0.24414,-2.58984 0.28942,-1.02652 0.96471,-1.88091 1.67578,-2.65235 0.71327,-0.7651 1.53969,-1.41366 2.40391,-1.99917 0.89961,-0.62545 1.85829,-1.15842 2.77486,-1.75769 0.82522,-0.52857 1.62599,-1.11114 2.29466,-1.83236 0.67174,-0.70841 1.20896,-1.54103 1.61874,-2.42566 0.41895,-0.87811 0.72111,-1.8093 0.94368,-2.75535 0.23369,-0.98791 0.37224,-1.99592 0.46308,-3.00628 0.11252,-1.06118 0.14382,-2.12953 0.17424,-3.19578 0.0375,-1.02874 0.002,-2.06065 -0.10467,-3.08455 -0.0376,-0.10543 0.008,-0.30223 -0.0431,-0.39238 z" /><path
         style="fill:#000000"
         id="path1133"
         d="m 190.46094,289.49023 c -0.1876,0.0509 -0.38781,0.0623 -0.56213,0.15625 -0.9609,0.41496 -1.90435,0.87105 -2.86976,1.27642 -0.94662,0.39056 -1.90776,0.74803 -2.87653,1.07949 -1.0207,0.34322 -2.05054,0.65901 -3.08722,0.95 -1.0523,0.27894 -2.10782,0.54526 -3.16491,0.80542 -1.1468,0.29247 -2.29152,0.59292 -3.43482,0.89882 -1.05016,0.2829 -2.10272,0.55654 -3.15893,0.81603 -1.02451,0.26779 -2.07275,0.41846 -3.11914,0.57031 -1.07236,0.15012 -2.14649,0.31704 -3.23242,0.30859 -0.15503,0.0341 -0.30044,-0.067 -0.45508,-0.0312 -0.0622,0.0825 -0.19511,0.1206 -0.21484,0.23633 -0.19691,0.45553 -0.0686,0.96498 0.0605,1.41992 0.18778,0.41912 0.41648,0.88196 0.85352,1.08594 l 0.17773,0.0332 c 0.11313,-0.0308 0.26011,-0.0116 0.34961,-0.10742 1.02143,-0.33944 2.0777,-0.55183 3.125,-0.79297 1.08241,-0.27943 2.16183,-0.56991 3.23753,-0.87413 1.0968,-0.3108 2.19318,-0.62309 3.28982,-0.93446 1.05712,-0.32073 2.10886,-0.65821 3.15477,-1.01384 0.99701,-0.37825 1.9824,-0.78537 2.95851,-1.21468 1.04643,-0.49022 2.08422,-0.99827 3.11407,-1.5224 1.0082,-0.51337 2.0164,-1.02673 3.0246,-1.5401 0.9571,-0.45804 1.91368,-0.91836 2.87109,-1.375 0.11589,-0.0872 0.23177,-0.17448 0.34766,-0.26172 -0.12956,0.0104 -0.25912,0.0208 -0.38867,0.0312 z" /><path
         style="fill:#000000"
         id="path1143"
         d="m 166.11133,304.06836 c -0.1622,0.0545 -0.34859,0.0591 -0.48828,0.16992 -0.12735,0.0865 -0.27141,0.14896 -0.38203,0.25943 -0.17289,0.13345 -0.31807,0.299 -0.48125,0.4437 -0.24599,0.28183 -0.47545,0.57913 -0.66321,0.90336 -0.13561,0.25778 -0.25104,0.52535 -0.36804,0.79195 -0.0346,0.18801 -0.0902,0.37252 -0.10298,0.56418 5.6e-4,0.12868 -0.0665,0.25825 0.002,0.38606 0.0142,0.14368 0.0522,0.28964 0.14035,0.40718 l 0.008,0.0137 0.0977,0.11719 0.12109,0.0996 0.0371,-0.0781 c 0.0423,-0.0393 0.0994,0.0162 0.12695,0.041 l 0.0645,0.0469 0.0605,-0.01 c 0.0231,-0.0204 0.0627,-0.0783 0.10352,-0.0488 l 0.0684,0.11719 c 1.52669,0.71029 3.05338,1.42057 4.58008,2.13086 1.13346,0.53776 2.26692,1.07552 3.40039,1.61328 0.99479,0.48633 1.98958,0.97266 2.98437,1.45898 1.02409,0.51172 2.04818,1.02344 3.07227,1.53516 1.01041,0.53711 2.02083,1.07422 3.03125,1.61133 0.82365,0.40265 1.64091,0.82185 2.49804,1.15039 0.68946,0.26888 1.37891,0.53776 2.06836,0.80664 0.80051,0.21163 1.59842,0.43367 2.40794,0.60903 0.90881,0.21135 1.82154,0.41102 2.74178,0.56531 3.36481,0.4816 6.72962,0.9632 10.09442,1.4448 1.1237,0.19336 2.2474,0.38672 3.3711,0.58008 1.10351,0.20638 2.20703,0.41276 3.31054,0.61914 1.10157,0.22396 2.20313,0.44792 3.30469,0.67187 0.93431,0.17818 1.86968,0.35032 2.8095,0.49712 0.93982,0.14542 1.88553,0.25093 2.82769,0.38053 1.11649,0.15214 2.23759,0.26689 3.35644,0.3999 2.424,0.27988 4.84819,0.55812 7.272,0.83964 0.79367,0.0769 1.58483,0.18444 2.38224,0.2159 1.14021,0.074 2.28215,0.11578 3.42352,0.16723 1.46587,0.0626 2.93157,0.12923 4.39776,0.18383 1.5699,0.0608 3.1397,0.12416 4.70965,0.18338 1.14743,0.0389 2.29486,0.0779 3.4423,0.11685 1.125,0.0215 2.25,0.043 3.375,0.0644 0.72352,-10e-4 1.44729,0.0131 2.17029,-0.0218 0.35789,-0.0136 0.71661,-0.0136 1.07281,-0.0552 1.15411,-0.0912 2.30414,-0.22414 3.45398,-0.35747 1.14681,-0.13057 2.29226,-0.27334 3.44011,-0.39447 1.27503,-0.13315 2.5494,-0.27268 3.82529,-0.39743 1.90901,-0.19127 3.81814,-0.38134 5.72697,-0.57437 1.08032,-0.11787 2.15908,-0.25165 3.2411,-0.35298 1.06801,-0.093 2.1353,-0.19651 3.2052,-0.26557 1.06631,-0.0759 2.13393,-0.137 3.20251,-0.16893 1.1054,-0.0398 2.21191,-0.0504 3.31791,-0.0355 1.08084,0.0103 2.16153,0.0379 3.24167,0.0777 1.07058,0.0393 2.14146,0.0724 3.21147,0.12562 1.18501,0.0529 2.36913,0.12334 3.55364,0.1862 1.14946,0.0624 2.29892,0.12489 3.44837,0.18734 1.13803,0.0508 2.27605,0.10156 3.41407,0.15234 1.10811,0.0293 2.21641,0.046 3.32491,0.0486 1.28232,-0.006 2.56464,-0.013 3.84696,-0.0193 1.09896,-0.0293 2.19792,-0.0586 3.29688,-0.0879 1.00068,-0.0551 2.0026,-0.10539 2.99969,-0.20673 0.68629,-0.084 1.37191,-0.17277 2.05321,-0.29146 0.64852,-0.0951 1.28482,-0.25633 1.92757,-0.38267 0.99526,-0.25305 1.9995,-0.47582 2.97656,-0.79492 1.02861,-0.34971 2.05424,-0.70876 3.06834,-1.0987 0.95261,-0.37995 1.91332,-0.74524 2.83498,-1.19678 0.89335,-0.44474 1.75877,-0.94538 2.58658,-1.50282 0.41589,-0.27126 0.81813,-0.56255 1.2269,-0.84428 0.87748,-0.6799 1.72996,-1.3913 2.56238,-2.12561 0.81703,-0.71317 1.62687,-1.43444 2.4298,-2.16346 0.80118,-0.74998 1.59676,-1.50585 2.38672,-2.26765 0.76167,-0.72582 1.52879,-1.44578 2.31,-2.1506 0.34145,-0.31246 0.68681,-0.62063 1.02984,-0.93135 l 0.0899,-0.15821 0.0195,-0.0332 c 0.0154,-0.15212 0.0866,-0.31545 0.0195,-0.4668 l -0.0273,-0.13476 c -0.1118,-0.21876 -0.19034,-0.46304 -0.36615,-0.64275 -0.24386,-0.30024 -0.5343,-0.55928 -0.83698,-0.79866 -0.22941,-0.15166 -0.47095,-0.28531 -0.71875,-0.4043 -0.17986,-0.0651 -0.35879,-0.14934 -0.55409,-0.15421 -0.0997,-0.0139 -0.19852,-0.0405 -0.29998,-0.003 -0.1129,0.006 -0.2305,0.024 -0.32366,0.0944 l -0.084,0.0469 c -0.51492,0.54567 -1.0011,1.11917 -1.54522,1.63658 -0.75422,0.73768 -1.49965,1.48434 -2.25667,2.21914 -0.60936,0.59774 -1.22967,1.18389 -1.86099,1.7584 -0.68953,0.62622 -1.38739,1.24347 -2.10656,1.83563 -0.53177,0.45475 -1.08981,0.87736 -1.63485,1.31587 -0.5974,0.42628 -1.18309,0.86946 -1.80238,1.26409 -0.71332,0.48442 -1.44321,0.94455 -2.19998,1.35834 -0.57679,0.3161 -1.1726,0.59694 -1.76539,0.88148 -0.47685,0.22361 -0.9575,0.43849 -1.44782,0.63106 -0.85418,0.35986 -1.72179,0.69273 -2.61828,0.93212 -0.71721,0.20588 -1.43794,0.4019 -2.16993,0.54838 -0.77108,0.17773 -1.55098,0.31174 -2.32825,0.45875 -1.05065,0.14952 -2.10474,0.27435 -3.16183,0.36837 -1.04061,0.10425 -2.08477,0.17023 -3.12885,0.22833 -0.9848,0.0345 -1.97006,-0.006 -2.95484,-0.0244 l -0.18275,-0.005 -0.0522,-10e-4 0.17968,-0.004 c -1.11849,-0.0449 -2.23697,-0.0898 -3.35546,-0.13476 -2.33697,-0.0584 -4.6739,-0.1184 -7.01089,-0.17593 -1.05514,-0.0207 -2.11006,-0.0494 -3.1649,-0.0819 -1.09673,-0.05 -2.1932,-0.10534 -3.2894,-0.16593 -1.1314,-0.082 -2.26279,-0.16412 -3.39419,-0.24617 -1.05078,-0.0866 -2.10156,-0.17318 -3.15234,-0.25977 -0.79173,-0.0319 -1.58364,-0.0559 -2.37608,-0.0566 -0.54888,-10e-4 -1.09715,0.0408 -1.64581,0.0552 -0.70505,0.0354 -1.40946,0.0886 -2.11326,0.14338 -1.09498,0.0938 -2.1871,0.21593 -3.27893,0.34052 -1.09724,0.12177 -2.19355,0.25238 -3.29133,0.369 -2.18023,0.20966 -4.36046,0.41933 -6.54069,0.62899 -1.97916,0.20312 -3.95833,0.40625 -5.9375,0.60937 -1.09635,0.0872 -2.19271,0.17448 -3.28906,0.26172 -0.94792,0.0534 -1.89583,0.10677 -2.84375,0.16016 l 0.0918,0.0273 c -1.09783,0.0198 -2.19573,0.0251 -3.29369,0.0156 -1.15146,-0.013 -2.30291,-0.0261 -3.45436,-0.0391 -1.13281,-0.0326 -2.26562,-0.0651 -3.39844,-0.0976 -1.09737,-0.0587 -2.1936,-0.13397 -3.28868,-0.22608 -1.29134,-0.12548 -2.58232,-0.25475 -3.87383,-0.3785 -1.11531,-0.1014 -2.23033,-0.20601 -3.3458,-0.30551 -1.10514,-0.0977 -2.21158,-0.18227 -3.31596,-0.28779 -1.04457,-0.10801 -2.08637,-0.23884 -3.1269,-0.38025 -1.44076,-0.19985 -2.88243,-0.39318 -4.32226,-0.59961 -1.07198,-0.18009 -2.14389,-0.36091 -3.21345,-0.55491 -1.08428,-0.19426 -2.16706,-0.39793 -3.24505,-0.62464 -1.12504,-0.23334 -2.2463,-0.48427 -3.36896,-0.72869 -0.89948,-0.19307 -1.79435,-0.40918 -2.70268,-0.5581 -0.7367,-0.1449 -1.48198,-0.23792 -2.22377,-0.35202 -0.90666,-0.10659 -1.81302,-0.2161 -2.72321,-0.28863 -1.1518,-0.10434 -2.30553,-0.18602 -3.45817,-0.28048 -0.8948,-0.0691 -1.78674,-0.17025 -2.678,-0.27464 -1.0465,-0.20154 -2.09715,-0.39219 -3.12415,-0.68042 -0.96778,-0.25314 -1.90383,-0.60926 -2.83888,-0.96121 -0.67454,-0.24497 -1.33341,-0.53013 -1.99986,-0.79587 -0.94817,-0.46326 -1.89239,-0.93434 -2.82587,-1.42665 -0.98627,-0.51634 -1.97286,-1.032 -2.97347,-1.52021 -1.04016,-0.50328 -2.08615,-0.99459 -3.12857,-1.49323 -0.78723,-0.38205 -1.57405,-0.76493 -2.34579,-1.17767 -0.67595,-0.35325 -1.36093,-0.68889 -2.04075,-1.03458 -0.87198,-0.38258 -1.74829,-0.75493 -2.62891,-1.11719 -0.47265,-0.21159 -0.94531,-0.42317 -1.41796,-0.63476 -0.35388,-0.19685 -0.69377,-0.419 -1.00861,-0.67401 -0.29724,-0.24666 -0.58029,-0.51028 -0.8703,-0.76545 l -0.13672,-0.0762 -0.14258,-0.0508 -0.18164,-0.0195 -0.18271,0.006 z" /><path
         style="fill:#000000"
         id="path1149"
         d="m 328.83398,272.2793 -0.0137,0.006 c -0.0717,0.11387 -0.1144,0.26239 -0.23828,0.33593 -0.71066,0.83877 -1.47532,1.62914 -2.22442,2.43313 -0.2816,0.30383 -0.56475,0.60831 -0.79316,0.95555 -0.22859,0.32672 -0.44569,0.66093 -0.65234,1.00195 -0.16927,0.58854 -0.33854,1.17708 -0.50781,1.76562 -0.007,0.60287 -0.0143,1.20573 -0.0215,1.8086 0.0983,0.70247 0.19662,1.40495 0.29492,2.10742 0.25066,0.63997 0.50131,1.27995 0.75196,1.91992 0.57552,0.94076 1.15104,1.88151 1.72656,2.82227 0.64518,0.88867 1.29036,1.77734 1.93555,2.66601 0.6595,0.88802 1.31901,1.77604 1.97851,2.66406 0.62826,0.91342 1.25651,1.82683 1.88477,2.74024 0.63281,0.95703 1.26562,1.91406 1.89844,2.87109 0.2513,0.87696 0.5026,1.75391 0.7539,2.63086 -0.0872,1.65235 -0.17448,3.30469 -0.26172,4.95703 -0.003,0.31178 3e-4,0.62401 -0.006,0.93555 l -0.0527,0.14844 c 0.006,0.0999 -0.0868,0.15716 -0.13281,0.23242 -0.002,0.082 -0.0697,0.15214 -0.0273,0.23828 v 0.002 c 0.11394,0.1224 0.22787,0.2448 0.3418,0.36719 0.30273,0.16016 0.60547,0.32031 0.9082,0.48047 0.26172,0.0872 0.52344,0.17448 0.78516,0.26172 0.45638,0.0436 0.91276,0.0872 1.36914,0.13086 0.21224,-0.0566 0.42448,-0.11328 0.63672,-0.16992 0.14518,-0.0931 0.29036,-0.1862 0.43555,-0.2793 l 0.0742,-0.082 c 0.0516,-0.1437 0.14313,-0.29056 0.11329,-0.45117 0.084,-1.70964 0.16796,-3.41927 0.25195,-5.12891 -0.13607,-1.097 -0.27214,-2.19401 -0.4082,-3.29101 -0.0593,-0.40625 -0.11849,-0.8125 -0.17774,-1.21876 -0.0684,-0.27213 -0.13672,-0.54427 -0.20508,-0.8164 -0.57552,-0.94662 -1.15104,-1.89323 -1.72656,-2.83984 -0.63346,-0.91081 -1.26693,-1.82162 -1.90039,-2.73243 -0.81706,-1.11002 -1.63411,-2.22005 -2.45117,-3.33007 -1.16211,-1.55404 -2.32422,-3.10808 -3.48633,-4.66211 -0.29102,-0.83724 -0.58203,-1.67448 -0.87305,-2.51172 -0.0273,-0.57943 -0.0547,-1.15886 -0.082,-1.73828 0.18164,-0.44206 0.36328,-0.88412 0.54492,-1.32618 0.33073,-0.38346 0.66146,-0.76692 0.99219,-1.15039 0.19857,-0.33919 0.39714,-0.67838 0.5957,-1.01758 0.20118,-0.26888 0.40235,-0.53776 0.60352,-0.80664 0.11784,-0.23958 0.23568,-0.47916 0.35352,-0.71875 l 0.0312,-0.12304 -0.043,-0.0781 -0.0234,-0.13281 -0.041,-0.0508 -0.0723,-0.0137 -0.0371,-0.0312 0.004,-0.0742 0.0488,-0.0566 -0.0137,-0.0625 -0.0898,-0.0566 -0.0955,-0.15589 -2.3e-4,-3.6e-4 -0.0156,-0.0273 c -0.28125,-0.23047 -0.5625,-0.46093 -0.84375,-0.6914 -0.5931,-0.22526 -1.1862,-0.45052 -1.7793,-0.67578 z" /><path
         style="fill:#000000"
         id="path1159"
         d="m 323.13477,261.4668 c 0.53337,0.52101 1.00364,1.10201 1.43359,1.70898 0.89242,1.10548 1.79571,2.20237 2.68161,3.31299 0.63827,0.80827 1.19689,1.67805 1.69067,2.58119 0.29317,0.52981 0.50678,1.10348 0.616,1.69957 -0.18281,0.5799 -0.54201,1.0828 -0.72656,1.66211 0.0639,0.28752 0.31642,0.6018 0.11719,0.89063 -0.11757,0.34108 -0.34006,0.63708 -0.61719,0.86523 -0.32231,0.49907 0.11969,1.08553 0.56445,1.32227 0.50538,0.43707 1.19466,0.55188 1.8418,0.56054 0.15758,-0.21252 0.42739,-0.33911 0.5039,-0.60937 0.0798,-10e-4 0.17997,-0.10017 0.11133,-0.17774 0.14533,-0.013 0.042,-0.20628 0.16992,-0.24023 -0.13147,-0.0916 0.1941,-0.15998 0.0664,-0.25586 -0.0764,-0.15959 0.29346,-0.13427 0.17969,-0.29297 0.38294,-0.99195 0.88767,-2.005 0.79883,-3.09766 -0.0657,-0.88713 -0.32269,-1.76986 -0.8125,-2.51757 -0.49944,-0.86633 -1.06327,-1.69374 -1.66993,-2.48829 -0.78948,-0.75743 -1.64688,-1.43779 -2.49334,-2.12941 -0.78522,-0.67402 -1.64859,-1.25066 -2.55846,-1.74155 -0.77878,-0.41907 -1.51516,-0.90899 -2.2646,-1.37708 0.12239,0.10807 0.24479,0.21614 0.36719,0.32422 z" /><path
         style="fill:#000000"
         id="path1193"
         d="m 317.11523,281.38281 -0.0156,0.0156 c 0.098,-0.0173 0.19442,0.0389 0.26369,0.10268 0.71614,0.44341 1.44382,0.86734 2.17576,1.28404 0.84829,0.55224 1.65994,1.16079 2.41965,1.82996 0.53617,0.42208 1.06653,0.86039 1.67996,1.16808 0.95659,0.52513 1.90665,1.06423 2.89649,1.52539 0.32575,0.15841 0.64343,0.33164 0.95312,0.51953 0.0676,0.0628 0.13213,0.17095 0.24024,0.16993 0.30731,0.0874 0.62546,-0.0662 0.85051,-0.26953 0.17931,-0.10822 0.28829,-0.29048 0.43074,-0.4375 0.35942,-0.49416 0.62812,-1.0648 0.72851,-1.66993 0.0211,-0.26413 0.0524,-0.54206 -0.0547,-0.79297 -0.0266,-0.12765 -0.13651,-0.20895 -0.21289,-0.30468 l -0.13086,-0.084 c -0.009,0.0502 -0.0983,0.0323 -0.082,0.0937 l -0.17578,-0.0137 c -0.24132,-0.0106 -0.47231,-0.10655 -0.71028,-0.14623 -0.95971,-0.23447 -1.89296,-0.56384 -2.84308,-0.83314 -0.82831,-0.25526 -1.66536,-0.48535 -2.52086,-0.63 -0.78604,-0.16174 -1.57572,-0.30791 -2.34675,-0.53369 -0.83609,-0.19981 -1.64094,-0.52646 -2.44231,-0.81983 -0.34115,-0.0729 -0.68229,-0.14583 -1.02344,-0.21875 z" /><path
         style="fill:#000000"
         id="path1277"
         d="m 325.36523,205.17773 c -0.28385,0.37891 -0.5677,0.75782 -0.85156,1.13672 -0.0308,0.14251 -0.0884,0.29434 -0.041,0.44141 l 0.0664,-0.008 c 0.0707,0.002 -0.0365,0.0826 0.0352,0.0898 l -0.043,0.0703 -0.082,0.0195 c -0.0417,0.0789 0.10489,0.0658 0.0723,0.14454 l 0.10352,0.041 c 0.0635,0.13507 -0.10669,0.26217 -0.0117,0.39258 0.0517,0.0588 0.14631,0.15269 0.0957,0.24414 l -0.0332,0.125 0.0957,0.12695 c 0.087,0.096 -0.14693,0.15688 -0.0664,0.25391 l 0.0586,0.0547 c 0.1278,1.12174 0.27155,2.24465 0.32527,3.37225 -0.006,1.26199 -0.0124,2.52397 -0.0186,3.78595 -0.61328,4.21029 -1.22656,8.42057 -1.83984,12.63086 0.17773,1.02018 0.35547,2.04036 0.5332,3.06055 0.49209,1.02194 0.97727,2.04986 1.53452,3.03775 0.57548,0.9257 1.15993,1.84572 1.74869,2.76303 0.62695,0.92708 1.2539,1.85416 1.88085,2.78125 0.76107,1.07357 1.52214,2.14713 2.28321,3.2207 0.69078,0.89193 1.37838,1.7871 2.09841,2.65558 0.71275,0.83307 1.54231,1.55582 2.32771,2.31857 0.84329,0.79316 1.72705,1.54171 2.59234,2.31053 4.68019,4.12516 9.36297,8.2474 14.04156,12.37437 1.36085,1.21847 2.7217,2.43694 4.08256,3.6554 0.61263,0.60092 1.22526,1.20183 1.83789,1.80274 0.40169,0.89844 0.80338,1.79687 1.20507,2.69531 0.13086,0.9668 0.26172,1.93359 0.39258,2.90039 -0.27474,0.9987 -0.54948,1.9974 -0.82422,2.9961 -0.47721,0.91666 -0.95442,1.83333 -1.43164,2.75 -1.42578,1.67317 -2.85156,3.34635 -4.27734,5.01953 0.50107,-0.22174 1.01832,-0.41652 1.459,-0.74987 0.54894,-0.35747 1.11426,-0.69254 1.60068,-1.13554 0.80442,-0.72096 1.61003,-1.44104 2.41653,-2.15985 0.78438,-0.64092 1.44325,-1.41227 2.08281,-2.19334 0.26646,-0.34733 0.59945,-0.64848 0.78917,-1.0491 0.46541,-0.80859 0.7854,-1.69078 1.21236,-2.51894 0.15042,-0.28019 0.0768,-0.61233 0.12119,-0.91482 0.0414,-1.07895 -0.0447,-2.16682 -0.32619,-3.21163 -0.24879,-1.04377 -0.5851,-2.06989 -1.06844,-3.0298 -0.20261,-0.36568 -0.33532,-0.77641 -0.63154,-1.08173 -0.21853,-0.27159 -0.43705,-0.54317 -0.65557,-0.81476 0.0175,-0.12762 -0.13501,-0.2215 -0.24609,-0.17187 -0.11235,-0.059 -0.0459,-0.25508 -0.19922,-0.26563 -0.77735,-0.79752 -1.55469,-1.59505 -2.33203,-2.39258 -1.4362,-1.2845 -2.8724,-2.56901 -4.3086,-3.85351 -1.22187,-1.04419 -2.43934,-2.09358 -3.66387,-3.13462 -2.30996,-1.92518 -4.61992,-3.85036 -6.92988,-5.77554 -0.83528,-0.72005 -1.67057,-1.4401 -2.50586,-2.16016 -0.78776,-0.77278 -1.57552,-1.54557 -2.36328,-2.31835 -0.71029,-0.83789 -1.42057,-1.67579 -2.13086,-2.51368 -1.49479,-1.972 -2.98958,-3.94401 -4.48437,-5.91601 -0.63802,-0.89258 -1.27604,-1.78516 -1.91407,-2.67774 -0.5319,-0.95963 -1.0638,-1.91927 -1.5957,-2.8789 -0.11393,-0.24089 -0.22786,-0.48177 -0.3418,-0.72266 -0.1264,-0.9746 -0.16604,-1.96067 -0.0922,-2.94124 0.14627,-1.29701 0.2947,-2.59385 0.4418,-3.89079 0.19987,-1.50911 0.39974,-3.01823 0.59961,-4.52734 0.10222,-1.10482 0.20443,-2.20964 0.30664,-3.31446 0.0124,-1.09765 0.0247,-2.19531 0.0371,-3.29297 -0.0804,-1.10069 -0.11905,-2.20947 -0.27333,-3.30165 -0.22024,-1.06592 -0.52659,-2.11131 -0.82027,-3.15858 -0.13482,-0.4488 -0.26963,-0.8976 -0.40444,-1.34641 -0.41016,-0.0619 -0.82032,-0.12369 -1.23047,-0.18554 -0.14649,0.11198 -0.29297,0.22396 -0.43946,0.33593 z" /><path
         style="fill:#000000"
         id="path1287"
         d="m 358.58984,264.06641 c -0.0987,0.0804 -0.25769,0.1101 -0.31054,0.24218 -0.49038,0.57387 -1.00199,1.13331 -1.41797,1.76563 -0.044,0.18852 -0.0355,0.41626 0.11523,0.55859 0.71017,0.8752 1.30807,1.8346 1.8471,2.82278 0.46435,0.77937 0.61591,1.69228 0.78161,2.57089 0.0736,0.42408 0.11624,0.85209 0.1584,1.28016 -0.0813,1.06901 -0.316,2.12111 -0.56801,3.16104 -0.29097,1.20123 -0.62402,2.39167 -0.93416,3.588 -0.20891,0.79199 -0.41782,1.58398 -0.62673,2.37596 -0.10783,1.02229 -0.23756,2.0418 -0.38868,3.05859 -0.0186,0.49741 -0.0571,1.00121 0.0738,1.48807 0.19857,1.11125 0.56048,2.18367 0.8807,3.26379 0.38824,1.27764 0.78916,2.5515 1.16897,3.83165 0.30284,1.03868 0.60503,2.07813 0.87505,3.12577 0.25316,1.07388 0.50179,2.14958 0.70232,3.23465 0.1769,1.04335 0.39785,2.08149 0.50646,3.13483 0.0932,1.07871 0.15149,2.15984 0.19331,3.24167 0.011,0.28772 0.022,0.57545 0.0329,0.86317 -0.10482,0.33073 -0.20964,0.66146 -0.31446,0.99219 -0.27213,0.30924 -0.54427,0.61849 -0.8164,0.92773 -0.79753,0.40299 -1.59505,0.80599 -2.39258,1.20898 -0.9875,0.17108 -1.97421,0.37997 -2.98047,0.39258 -1.1134,0.0229 -2.22691,0.0364 -3.34055,0.0388 -0.96406,-0.0853 -1.88902,-0.38871 -2.82626,-0.6132 -1.0254,-0.24673 -2.03705,-0.54514 -3.04303,-0.86098 -0.8898,-0.26086 -1.77598,-0.54697 -2.6103,-0.95613 -1.12879,-0.55795 -2.25241,-1.12631 -3.37908,-1.68855 l -0.17578,-0.0488 c -0.13432,-0.0951 -0.18541,0.15703 -0.31836,0.12304 -0.24538,0.19868 -0.3475,0.60302 -0.14648,0.86719 0.10399,0.11695 0.27434,0.0655 0.39844,0.14063 2.08984,0.59895 4.17968,1.19791 6.26953,1.79687 1.77604,0.44987 3.55208,0.89974 5.32812,1.34961 l -0.16211,-0.0215 -0.16211,-0.01 c 1.08399,0.24089 2.16797,0.48177 3.25196,0.72266 1.09114,0.13867 2.18229,0.27734 3.27343,0.41601 0.88672,0.0137 1.77344,0.0274 2.66016,0.041 0.98958,-0.44857 1.97917,-0.89714 2.96875,-1.34571 0.27734,-0.24934 0.55469,-0.49869 0.83203,-0.74804 0.35904,-0.79333 0.71404,-1.60148 0.8457,-2.46875 -0.0371,-1.10417 -0.0742,-2.20834 -0.11132,-3.3125 -0.067,-1.03023 -0.1164,-2.06238 -0.24024,-3.08789 -0.20573,-1.07813 -0.41146,-2.15625 -0.61719,-3.23438 -0.26595,-1.08349 -0.49594,-2.17687 -0.7832,-3.25451 -0.31921,-1.0408 -0.65788,-2.07531 -1.00586,-3.10682 -0.35884,-1.03985 -0.71235,-2.08152 -1.06055,-3.125 -0.1719,-0.61555 -0.32667,-1.23538 -0.46484,-1.85937 0.0794,-0.98112 0.15885,-1.96224 0.23828,-2.94336 0.29305,-1.12001 0.57387,-2.24336 0.87468,-3.36125 0.30219,-1.08348 0.63752,-2.15863 0.91982,-3.24712 0.21676,-1.04072 0.48914,-2.07979 0.54575,-3.14473 0.0177,-1.00652 -0.0336,-2.01615 -0.12622,-3.01737 -0.13852,-0.91042 -0.49369,-1.76723 -0.77848,-2.63773 -0.3708,-0.96665 -0.66132,-2.03765 -1.46817,-2.74613 -0.65431,-0.63423 -1.37359,-1.19694 -2.05722,-1.7988 z" /><path
         style="fill:#000000"
         id="path1295"
         d="m 154.62109,193.80859 c -0.23242,0.0273 -0.46484,0.0547 -0.69726,0.082 -0.73893,0.26498 -1.47787,0.52995 -2.2168,0.79493 -0.50521,0.55338 -1.01042,1.10677 -1.51562,1.66015 -0.0365,0.38998 -0.0729,0.77995 -0.10938,1.16992 0.19336,0.32878 0.38672,0.65756 0.58008,0.98633 0.24023,0.16407 0.48047,0.32813 0.7207,0.49219 0.23368,0.10463 0.45963,0.23568 0.71289,0.28906 0.17774,0.0462 0.35547,0.0925 0.53321,0.13868 0.14859,-0.0244 0.3161,0.009 0.45117,-0.0762 l 0.14062,-0.0566 0.13672,-0.0644 0.0684,-0.0742 0.0273,-0.0215 0.10547,-0.14844 0.0957,-0.13477 c 0.1455,-0.0758 0.22734,-0.24715 0.40039,-0.27539 h 0.002 c 0.16406,-0.0801 0.32813,-0.16015 0.49219,-0.24023 -0.0445,-0.0156 -0.0222,-0.0846 0.0137,-0.0957 0.32227,-0.0762 0.64453,-0.15235 0.9668,-0.22852 l 0.0898,-0.01 0.17188,0.0605 0.0937,0.0332 0.043,0.0449 c 1.05274,0.347 2.10547,0.69401 3.15821,1.04101 1.08268,0.32682 2.16536,0.65365 3.24804,0.98047 1.09506,0.32096 2.19011,0.64193 3.28516,0.96289 1.10156,0.30925 2.20313,0.61849 3.30469,0.92774 1.11068,0.29492 2.22135,0.58984 3.33203,0.88476 3.69726,0.91341 7.39453,1.82682 11.0918,2.74024 1.10286,0.26757 2.20573,0.53515 3.30859,0.80273 1.07096,0.25065 2.14193,0.5013 3.21289,0.75195 1.11393,0.2474 2.22787,0.49479 3.3418,0.74219 1.08268,0.22461 2.16536,0.44922 3.24804,0.67383 1.08659,0.20443 2.17318,0.40885 3.25977,0.61328 1.11068,0.1901 2.22135,0.38021 3.33203,0.57031 1.08985,0.16927 2.17969,0.33854 3.26953,0.50781 1.39844,0.20313 2.79688,0.40625 4.19531,0.60938 4.20769,0.57227 8.41537,1.14453 12.62305,1.7168 1.5332,0.21549 3.06641,0.43099 4.59961,0.64648 1.11068,0.13346 2.22136,0.26693 3.33203,0.40039 1.12761,0.11719 2.25521,0.23438 3.38281,0.35156 1.15691,0.10482 2.31381,0.20964 3.47071,0.31446 6.75716,0.51823 13.51432,1.03646 20.27148,1.55468 1.11914,0.0768 2.23828,0.15365 3.35742,0.23047 1.1543,0.0566 2.3086,0.11328 3.46289,0.16992 1.1237,0.0339 2.2474,0.0677 3.3711,0.10157 1.12109,-0.001 2.24219,-0.003 3.36328,-0.004 1.14388,-0.0234 2.28776,-0.0469 3.43164,-0.0703 2.79622,-0.0918 5.59245,-0.18359 8.38867,-0.27539 1.09831,-0.0488 2.19662,-0.0977 3.29492,-0.14649 1.11589,-0.0951 2.23178,-0.1901 3.34766,-0.28515 1.11133,-0.14323 2.22266,-0.28646 3.33399,-0.42969 1.60937,-0.23698 3.21875,-0.47396 4.82812,-0.71094 1.12695,-0.17643 2.25391,-0.35286 3.38086,-0.52929 1.11068,-0.19401 2.22135,-0.38803 3.33203,-0.58204 1.11263,-0.21679 2.22526,-0.43359 3.33789,-0.65039 1.10807,-0.23828 2.21615,-0.47656 3.32422,-0.71484 1.11198,-0.25977 2.22396,-0.51953 3.33594,-0.7793 2.60612,-0.65625 5.21224,-1.3125 7.81836,-1.96875 1.0651,-0.29166 2.13021,-0.58333 3.19531,-0.875 0.44596,-0.15039 0.89193,-0.30078 1.33789,-0.45117 0.17057,-0.0996 0.34115,-0.19922 0.51172,-0.29883 -0.0905,-0.39062 -0.18099,-0.78125 -0.27149,-1.17187 -0.26497,-0.61133 -0.52994,-1.22266 -0.79492,-1.83399 l -0.11719,-0.12109 -0.13281,-0.10352 -0.002,-0.002 -0.15625,-0.0527 h -0.16602 l 0.008,-0.002 -0.18164,0.0137 c -1.05469,0.30143 -2.10938,0.60286 -3.16407,0.90429 -2.81575,0.83529 -5.63151,1.67058 -8.44726,2.50586 -1.06641,0.2819 -2.13282,0.5638 -3.19922,0.8457 -1.08268,0.22657 -2.16537,0.45313 -3.24805,0.67969 -1.08268,0.19466 -2.16536,0.38933 -3.24805,0.58399 -1.86197,0.30468 -3.72395,0.60937 -5.58593,0.91406 -1.09571,0.16927 -2.19141,0.33854 -3.28711,0.50781 -1.08919,0.14453 -2.17839,0.28906 -3.26758,0.4336 -1.10286,0.11783 -2.20573,0.23567 -3.30859,0.35351 -1.10222,0.0775 -2.20443,0.15495 -3.30664,0.23242 -1.13868,0.0527 -2.27735,0.10547 -3.41602,0.15821 -3.13151,0.0807 -6.26302,0.16145 -9.39453,0.24218 -1.11198,0.0234 -2.22396,0.0469 -3.33594,0.0703 -1.10872,0.0143 -2.21745,0.0286 -3.32617,0.043 -1.10742,-0.006 -2.21484,-0.0117 -3.32227,-0.0176 -1.10807,-0.0332 -2.21614,-0.0664 -3.32422,-0.0996 -1.097,-0.0625 -2.19401,-0.125 -3.29101,-0.1875 -1.09505,-0.0833 -2.1901,-0.16667 -3.28516,-0.25 -1.09244,-0.099 -2.18489,-0.19792 -3.27734,-0.29688 -1.88086,-0.19466 -3.76172,-0.38932 -5.64258,-0.58398 -2.36977,-0.26295 -4.7397,-0.5244 -7.10937,-0.78826 -1.218,-0.13949 -2.43638,-0.27575 -3.65416,-0.41713 -1.31645,-0.1581 -2.63291,-0.3162 -3.94936,-0.4743 -1.12695,-0.14974 -2.25391,-0.29948 -3.38086,-0.44922 -1.11719,-0.1595 -2.23437,-0.31901 -3.35156,-0.47851 -2.29102,-0.34766 -4.58203,-0.69532 -6.87305,-1.04297 -1.09896,-0.1556 -2.19791,-0.3112 -3.29687,-0.4668 -2.09701,-0.26628 -4.19401,-0.53255 -6.29102,-0.79883 -0.92773,-0.1289 -1.85547,-0.25781 -2.7832,-0.38672 -1.07943,-0.21093 -2.15886,-0.42187 -3.23828,-0.63281 -3.67774,-0.82226 -7.35547,-1.64453 -11.03321,-2.4668 -1.10937,-0.25325 -2.21875,-0.50651 -3.32812,-0.75976 -1.07617,-0.25716 -2.15234,-0.51432 -3.22852,-0.77149 -1.10547,-0.27929 -2.21093,-0.55859 -3.3164,-0.83789 -1.06901,-0.29166 -2.13802,-0.58333 -3.20703,-0.875 -2.28842,-0.64778 -4.57683,-1.29557 -6.86524,-1.94336 -1.08789,-0.3164 -2.17578,-0.63281 -3.26367,-0.94921 -2.46354,-0.78776 -4.92708,-1.57553 -7.39063,-2.36329 -0.66145,-0.17252 -1.32291,-0.34505 -1.98437,-0.51757 -0.43034,-0.0618 -0.86068,-0.1237 -1.29102,-0.18555 -0.27278,-0.008 -0.54557,-0.0169 -0.81836,-0.0254 z" /><path
         style="fill:#000000"
         id="path1942"
         d="m 336.05041,302.966 c 0.0147,-6.5e-4 0.0344,-0.013 0.0442,-0.002 0.0209,0.0236 0.0193,0.0602 0.0329,0.0886 0.0103,0.0217 0.029,0.0389 0.0383,0.061 0.0428,0.10131 0.0623,0.25117 0.0784,0.35806 0.009,0.0603 0.0182,0.1207 0.0277,0.18098 0.011,0.0697 0.0211,0.13965 0.0338,0.2091 0.0149,0.0817 0.0588,0.2698 0.0717,0.35115 0.0245,0.21441 0.01,0.11036 0.0439,0.31228 0.0595,0.28349 0.14174,0.56506 0.28809,0.8173 0.0342,0.0589 0.0729,0.11508 0.10932,0.17262 0.1339,0.18917 0.28861,0.36252 0.42597,0.54901 0.0487,0.0661 0.0931,0.13534 0.14052,0.20238 0.0968,0.13681 0.19592,0.27201 0.29369,0.40815 0.20125,0.27829 0.44184,0.52283 0.67993,0.76889 0.0605,0.0626 0.119,0.12725 0.18197,0.18737 0.0638,0.0609 0.13213,0.11707 0.19819,0.1756 0.0678,0.0585 0.13404,0.11883 0.20329,0.17561 0.0698,0.0572 0.14215,0.11137 0.21379,0.16633 0.11888,0.0912 0.31275,0.23937 0.4392,0.3193 0.16694,0.10551 0.33542,0.18689 0.51083,0.27685 0.34563,0.19843 0.14038,0.0766 0.46989,0.28109 0.0739,0.0459 0.14496,0.0969 0.22213,0.13702 0.0806,0.0419 0.16683,0.0721 0.24999,0.10868 0.28013,0.12335 0.21825,0.0964 0.49436,0.22794 0.2393,0.12204 0.48733,0.2254 0.73386,0.33159 0.10295,0.0444 0.39207,0.17143 0.49609,0.20878 0.0872,0.0313 0.17706,0.0551 0.26559,0.0826 0.51652,0.1569 1.02506,0.33873 1.53797,0.50692 0.31948,0.0964 0.64034,0.19191 0.96647,0.26372 0.21714,0.0478 0.27706,0.0548 0.49799,0.0915 0.0909,0.0126 0.18152,0.0272 0.27266,0.0379 0.0878,0.0103 0.48933,0.0455 0.57216,0.0538 0.3033,0.0307 0.60433,0.0755 0.90612,0.1181 0.17751,0.0285 0.44578,0.0718 0.62256,0.0991 0.10589,0.0163 0.2112,0.0376 0.31784,0.0479 0.11558,0.0112 0.23198,0.0108 0.34795,0.0166 0.38365,0.0191 0.35453,0.0182 0.74316,0.041 0.74802,0.0541 1.48458,0.19797 2.2148,0.3632 0.62186,0.12953 1.24176,0.26797 1.85814,0.42149 0.091,0.0208 0.18219,0.0405 0.27291,0.0624 0.27388,0.0661 0.24903,0.074 0.52923,0.11337 0.0893,0.0126 0.1795,0.0181 0.26909,0.0286 0.24378,0.0287 0.28372,0.0372 0.5245,0.0745 0.32474,0.035 0.64437,0.10498 0.96716,0.15228 0.19098,0.028 0.28048,0.0321 0.47305,0.0477 0.31001,-0.004 0.6204,0.004 0.93005,-0.0119 0.0908,-0.005 0.17858,-0.0349 0.26846,-0.0489 0.35033,-0.0545 0.70432,-0.0853 1.05532,-0.13537 0.46955,-0.0666 0.93743,-0.14476 1.40371,-0.23143 0.2108,-0.0358 0.41069,-0.1016 0.61155,-0.17214 0.0289,-0.0101 0.33519,-0.11563 0.36761,-0.12868 0.0645,-0.0259 0.12678,-0.0569 0.19017,-0.0853 0.17435,-0.0837 0.34144,-0.18085 0.50903,-0.27697 0.0849,-0.0487 0.22316,-0.12422 0.30382,-0.17805 0.0499,-0.0333 0.0967,-0.071 0.14501,-0.10657 0.0434,-0.0334 0.086,-0.0679 0.1302,-0.10019 0.12839,-0.0937 0.26036,-0.18096 0.38342,-0.28211 0.0799,-0.0657 0.17952,-0.15614 0.25724,-0.22566 0.0448,-0.0417 0.17915,-0.16456 0.21616,-0.20859 0.0419,-0.0498 0.0765,-0.10525 0.11467,-0.15793 0.35789,-0.49385 -0.10524,0.15176 0.24787,-0.36493 0.0389,-0.0569 0.0816,-0.1111 0.12245,-0.16666 0.038,-0.0489 0.0757,-0.098 0.114,-0.14656 0.11341,-0.14372 0.12546,-0.14992 0.23243,-0.30498 0.10658,-0.15449 0.19736,-0.31687 0.28643,-0.48176 0.0279,-0.0566 0.0561,-0.11307 0.0837,-0.16983 0.0616,-0.1268 0.10052,-0.20341 0.14902,-0.33619 0.0614,-0.16816 0.0995,-0.34273 0.13751,-0.51718 0.003,-0.0693 0.01,-0.13861 0.0103,-0.20804 -0.004,-0.10748 -0.0139,-0.31653 -0.0129,-0.42551 0.002,-0.2054 0.0188,-0.40981 0.0423,-0.61365 0.0414,-0.3455 0.0333,-0.69453 -0.0384,-1.03572 -0.0169,-0.0804 -0.0405,-0.15925 -0.0607,-0.23887 -0.0373,-0.12554 -0.11141,-0.38164 -0.15658,-0.50532 -0.12165,-0.33304 -0.0905,-0.17955 -0.19692,-0.5132 -0.0644,-0.20182 -0.0649,-0.23987 -0.10117,-0.44078 -0.15447,-0.4766 -2.85053,0.39726 -2.69605,0.87386 v 0 c 0.0787,0.11785 0.13655,0.19272 0.1929,0.32318 0.06,0.13894 0.0542,0.16772 0.0715,0.31403 0.0221,0.18764 0.017,0.10578 0.0173,0.28441 -0.0168,0.26634 -0.0364,0.53254 -0.0238,0.79961 0.001,0.0497 0.005,0.0995 0.003,0.14923 -0.005,0.13498 -0.0293,0.27402 -0.089,0.39613 -0.0102,0.0208 -0.0894,0.14089 -0.10734,0.16827 -0.0272,0.0797 -0.0592,0.15808 -0.0854,0.23807 -0.0228,0.0697 -0.0187,0.0796 -0.0431,0.15107 -0.009,0.0264 -0.0205,0.0518 -0.0307,0.0777 -0.0885,0.1934 -0.17507,0.39013 -0.30103,0.56272 -0.0244,0.0292 -0.0453,0.0617 -0.0732,0.0875 -0.0179,0.0166 -0.1393,0.0935 -0.1632,0.10688 -0.0305,0.0171 -0.0644,0.0284 -0.0936,0.0477 -0.0327,0.0216 -0.0609,0.0494 -0.091,0.0744 -0.0331,0.0275 -0.0658,0.0555 -0.0986,0.0832 -0.1101,0.0941 -0.2238,0.18353 -0.33657,0.27442 -0.0313,0.0252 -0.0612,0.0523 -0.0937,0.0761 -0.0327,0.0239 -0.0678,0.0445 -0.10171,0.0668 -0.1872,0.118 -0.35911,0.26155 -0.56446,0.34977 -0.0707,0.0365 -0.14037,0.075 -0.21134,0.11098 -0.16685,0.0846 -0.34371,0.14753 -0.51304,0.22699 -0.33637,0.14576 -0.684,0.26138 -1.04437,0.33197 -0.20106,0.0355 -0.40189,0.0741 -0.6064,0.0835 -0.0694,0.003 -0.13912,0.006 -0.20849,0.002 -0.0684,-0.004 -0.2719,-0.0185 -0.2039,-0.0274 0.15741,-0.0206 0.31747,-0.006 0.4762,-0.008 -0.45924,0.0176 -0.91823,0.0531 -1.3781,0.0391 -0.23165,-0.003 -0.27946,-7.3e-4 -0.51144,-0.0182 -0.0866,-0.007 -0.17268,-0.0189 -0.25933,-0.0245 -0.28128,-0.0182 -0.25031,-0.004 -0.53816,-0.005 -0.0967,-1.5e-4 -0.19338,-0.004 -0.29006,-0.005 -0.65532,-0.001 -1.30967,-0.0341 -1.96395,-0.0688 -0.11925,-0.006 -0.23863,-0.01 -0.35775,-0.0177 -0.61406,-0.0415 -1.22656,-0.12944 -1.82133,-0.28972 -0.32109,-0.0959 -0.34163,-0.0996 -0.65564,-0.20278 -0.10162,-0.0334 -0.2011,-0.0736 -0.30409,-0.10254 -0.0992,-0.0279 -0.2011,-0.045 -0.30163,-0.0676 -0.37055,-0.0833 -0.21997,-0.0488 -0.59041,-0.13637 -0.28112,-0.0731 -0.5624,-0.14346 -0.83908,-0.23236 -1.07185,-0.3444 0.53574,0.16436 -0.50343,-0.17093 -0.0767,-0.0247 -0.15419,-0.0466 -0.23129,-0.07 -0.205,-0.0596 -0.25887,-0.0778 -0.4657,-0.12804 -0.30617,-0.0743 -0.6172,-0.1272 -0.92399,-0.19889 -0.47696,-0.0955 -0.95572,-0.19921 -1.40858,-0.38083 -0.0727,-0.0299 -0.14441,-0.0622 -0.21799,-0.0898 -0.14683,-0.055 -0.29959,-0.0934 -0.44368,-0.15623 -0.18705,-0.0718 -0.25928,-0.10593 -0.44476,-0.1831 -0.0736,-0.0306 -0.14744,-0.0605 -0.22115,-0.0907 -0.21609,-0.0985 -0.22166,-0.0956 -0.42876,-0.21162 -0.0672,-0.0377 -0.13041,-0.0826 -0.19919,-0.11743 -0.0685,-0.0347 -0.14175,-0.0593 -0.21192,-0.0905 -0.2385,-0.10624 -0.1866,-0.0839 -0.41125,-0.21062 -0.11152,-0.0823 -0.22079,-0.16764 -0.33236,-0.24988 -0.20877,-0.1539 -0.42193,-0.30148 -0.61028,-0.48126 -0.0881,-0.0871 -0.18065,-0.1696 -0.2676,-0.25783 -0.16563,-0.16807 -0.29971,-0.36385 -0.4415,-0.55149 -0.0922,-0.13092 -0.18759,-0.26631 -0.24459,-0.41768 -0.0491,-0.13039 -0.0643,-0.27139 -0.0705,-0.40936 -0.002,-0.0329 -0.002,-0.0661 -0.007,-0.0987 -0.02,-0.131 -0.0638,-0.25709 -0.0985,-0.38425 -0.024,-0.0981 -0.0714,-0.20022 -0.0345,-0.30231 0.008,-0.0216 0.0473,-0.0224 0.0481,-0.0492 0.0376,-0.0519 0.0764,-0.0998 0.12024,-0.14653 0.0177,-0.0188 0.0304,-0.0438 0.0528,-0.0566 0.0126,-0.007 0.031,0.009 0.0434,0.002 0.0227,-0.0137 0.0351,-0.0399 0.0527,-0.0598 0.0722,-0.68867 -3.82349,-1.09709 -3.89569,-0.40843 z" /></g><path
       style="fill:#000000;fill-opacity:0"
       d="m 143.16028,228.76775 c -4.68163,4.25923 -14.04495,12.77774 -19.36034,18.02278 -5.31539,5.24503 -6.58258,7.21622 -7.56819,10.24378 -0.9856,3.02755 -1.6896,7.11072 -1.93591,11.33494 -0.2463,4.22423 -0.0351,8.589 1.12673,13.658 1.16183,5.069 3.27381,10.84175 4.85778,15.69945 1.58397,4.85769 2.63996,8.80006 4.18924,11.33425 1.54928,2.53418 3.59086,3.66057 6.61811,4.57556 3.02726,0.91499 7.04003,1.61898 11.08798,1.68922 4.04795,0.0702 8.13112,-0.49296 11.75652,-1.72502 3.6254,-1.23207 6.79338,-3.13286 8.62357,-4.99807 1.83019,-1.86521 2.32299,-3.6956 2.11203,-6.33542 -0.21097,-2.63982 -1.12616,-6.08939 -1.61912,-10.03197 -0.49296,-3.94258 -0.56335,-8.37774 0.22211,-11.34275 0.78547,-2.965 2.4267,-4.45862 4.14351,-5.77801 1.71681,-1.31938 3.5089,-2.46432 4.74075,-3.72101 1.23186,-1.2567 1.90389,-2.62565 2.36439,-3.99445 0.46051,-1.3688 0.70941,-2.73775 0.87125,-4.26845 0.16184,-1.5307 0.23651,-3.22322 -1.03269,-7.60388 -1.2692,-4.38067 -3.88264,-11.44943 -7.80262,-17.07488 -3.91998,-5.62546 -9.14687,-9.80697 -12.48352,-11.89052 -3.33665,-2.08354 -4.78279,-2.06814 -5.50637,-2.06044 -0.72357,0.008 -0.72357,0.008 -5.40521,4.26689 z"
       id="path954"
       inkscape:path-effect="#path-effect956"
       inkscape:original-d="m 147.84192,224.50852 c -9.36232,8.51951 -18.72564,17.03802 -28.08997,25.55553 -1.26624,1.97226 -2.53343,3.94345 -3.80164,5.91367 -0.70303,4.08434 -1.40702,8.16751 -2.11203,12.24976 0.21221,4.36595 0.4234,8.73072 0.63361,13.09457 2.11307,5.77399 4.22505,11.54675 6.33608,17.31863 1.05703,3.94353 2.11303,7.8859 3.16804,11.82735 2.04267,1.12744 4.08425,2.25383 6.12488,3.37925 4.01393,0.70502 8.0267,1.40901 12.03856,2.11202 4.08433,-0.56222 8.1675,-1.12541 12.24975,-1.68962 3.16911,-1.89986 6.33709,-3.80065 9.50413,-5.70247 0.49381,-1.82946 0.98661,-3.65985 1.47842,-5.49127 -0.91423,-3.44872 -1.82943,-6.89829 -2.74564,-10.34894 -0.0694,-4.43435 -0.1398,-8.86951 -0.2112,-13.30577 1.6423,-1.49269 3.28353,-2.98631 4.9238,-4.48097 1.79315,-1.14398 3.58523,-2.28892 5.37634,-3.43488 0.67306,-1.36801 1.34509,-2.73696 2.01613,-4.10693 0.24991,-1.36801 0.49881,-2.73696 0.74672,-4.10693 0.0757,-1.69159 0.15034,-3.38411 0.22401,-5.07766 -2.61255,-7.06804 -5.226,-14.13679 -7.8405,-21.20669 -5.22611,-4.18069 -10.453,-8.3622 -15.681,-12.5448 -1.44519,0.0164 -2.89133,0.0318 -4.33849,0.0462 z" /></g></svg>
