<?xml version="1.0" encoding="UTF-8" standalone="no"?>
<!-- Generator: Adobe Illustrator 16.0.0, SVG Export Plug-In . SVG Version: 6.00 Build 0)  -->

<svg
   version="1.1"
   id="Capa_1"
   x="0px"
   y="0px"
   width="900.5"
   height="900.5"
   viewBox="0 0 900.5 900.5"
   xml:space="preserve"
   sodipodi:docname="clear.svg"
   xmlns:inkscape="http://www.inkscape.org/namespaces/inkscape"
   xmlns:sodipodi="http://sodipodi.sourceforge.net/DTD/sodipodi-0.dtd"
   xmlns="http://www.w3.org/2000/svg"
   xmlns:svg="http://www.w3.org/2000/svg"><defs
   id="defs2555" /><sodipodi:namedview
   id="namedview2553"
   pagecolor="#ffffff"
   bordercolor="#999999"
   borderopacity="1"
   inkscape:showpageshadow="0"
   inkscape:pageopacity="0"
   inkscape:pagecheckerboard="0"
   inkscape:deskcolor="#d1d1d1"
   showgrid="false" />
<g
   id="g2520">
	<path
   d="m 176.415,880.5 c 0,11.046 8.954,20 20,20 h 507.67 c 11.046,0 20,-8.954 20,-20 V 232.487 H 176.415 Z M 562.75,342.766 h 75 v 436.029 h -75 z m -150,0 h 75 v 436.029 h -75 z m -150,0 h 75 v 436.029 h -75 z"
   id="path2516"
   style="opacity:1;fill:#ffffff;fill-opacity:0.957627" />
	<path
   d="M 618.825,91.911 V 20 c 0,-11.046 -8.954,-20 -20,-20 h -297.15 c -11.046,0 -20,8.954 -20,20 v 71.911 12.5 12.5 H 141.874 c -11.046,0 -20,8.954 -20,20 v 50.576 c 0,11.045 8.954,20 20,20 h 34.541 547.67 34.541 c 11.046,0 20,-8.955 20,-20 v -50.576 c 0,-11.046 -8.954,-20 -20,-20 H 618.825 v -12.5 z m -75,20.888 H 356.675 V 104.41 91.91 75 h 187.15 v 16.911 12.5 z"
   id="path2518"
   style="opacity:1;fill:#ffffff;fill-opacity:0.957627" />
</g>















</svg>
