<?xml version="1.0" encoding="UTF-8" standalone="no"?>
<!-- Svg Vector Icons : http://www.onlinewebfonts.com/icon -->

<svg
   version="1.1"
   x="0px"
   y="0px"
   viewBox="0 0 979.90039 979.90039"
   enable-background="new 0 0 1000 1000"
   xml:space="preserve"
   id="svg891"
   width="979.90039"
   height="979.90039"
   sodipodi:docname="randomize.svg"
   xmlns:inkscape="http://www.inkscape.org/namespaces/inkscape"
   xmlns:sodipodi="http://sodipodi.sourceforge.net/DTD/sodipodi-0.dtd"
   xmlns="http://www.w3.org/2000/svg"
   xmlns:svg="http://www.w3.org/2000/svg"><sodipodi:namedview
   id="namedview264"
   pagecolor="#3a3a3a"
   bordercolor="#999999"
   borderopacity="1"
   inkscape:showpageshadow="0"
   inkscape:pageopacity="0"
   inkscape:pagecheckerboard="0"
   inkscape:deskcolor="#d1d1d1"
   showgrid="false" /><defs
   id="defs895" />
<metadata
   id="metadata883"> Svg Vector Icons : http://www.onlinewebfonts.com/icon </metadata>
<g
   id="g889"
   transform="translate(-10,-10.099609)"><g
     transform="matrix(1,0,0,-1,0,1920)"
     id="g887"><path
       d="m 137.8,930 c -35.2,0 -65.3,12.5 -90.3,37.5 -25,25 -37.5,55.1 -37.5,90.3 v 724.3 c 0,35.2 12.5,65.3 37.5,90.3 25,25 55.1,37.5 90.3,37.5 h 724.3 c 35.2,0 65.3,-12.5 90.3,-37.5 25,-25 37.5,-55.1 37.5,-90.3 v -724.3 c 0,-35.2 -12.5,-65.3 -37.5,-90.3 -25,-25 -55.1,-37.5 -90.3,-37.5 z m 106.5,664.7 c 22.4,0 41.5,7.9 57.3,23.6 15.8,15.8 23.6,34.9 23.6,57.3 0,22.4 -7.9,41.5 -23.6,57.3 -15.8,15.8 -34.9,23.6 -57.3,23.6 -22.4,0 -41.5,-7.9 -57.3,-23.6 -15.8,-15.8 -23.6,-34.9 -23.6,-57.3 0,-22.4 7.9,-41.5 23.6,-57.3 15.8,-15.7 34.9,-23.6 57.3,-23.6 z m 511.4,0 c 22.4,0 41.5,7.9 57.3,23.6 15.8,15.8 23.6,34.9 23.6,57.3 0,22.4 -7.9,41.5 -23.6,57.3 -15.8,15.8 -34.9,23.6 -57.3,23.6 -22.4,0 -41.5,-7.9 -57.3,-23.6 -15.8,-15.8 -23.6,-34.9 -23.6,-57.3 0,-22.4 7.9,-41.5 23.6,-57.3 15.7,-15.7 34.8,-23.6 57.3,-23.6 z M 500,1339 c 22.4,0 41.5,7.9 57.3,23.6 15.8,15.8 23.6,34.9 23.6,57.3 0,22.4 -7.9,41.5 -23.6,57.3 -15.8,15.8 -34.9,23.6 -57.3,23.6 -22.4,0 -41.5,-7.9 -57.3,-23.6 -15.8,-15.8 -23.6,-34.9 -23.6,-57.3 0,-22.4 7.9,-41.5 23.6,-57.3 15.7,-15.8 34.9,-23.6 57.3,-23.6 z M 244.3,1083.4 c 22.4,0 41.5,7.9 57.3,23.6 15.8,15.8 23.6,34.9 23.6,57.3 0,22.4 -7.9,41.5 -23.6,57.3 -15.8,15.8 -34.9,23.6 -57.3,23.6 -22.4,0 -41.5,-7.9 -57.3,-23.6 -15.8,-15.8 -23.6,-34.9 -23.6,-57.3 0,-22.4 7.9,-41.5 23.6,-57.3 15.7,-15.8 34.9,-23.6 57.3,-23.6 z m 511.4,0 c 22.4,0 41.5,7.9 57.3,23.6 15.8,15.8 23.6,34.9 23.6,57.3 0,11.1 -2.1,21.6 -6.4,31.5 -4.3,9.9 -10,18.5 -17.3,25.8 -7.2,7.2 -15.8,13 -25.8,17.3 -9.9,4.3 -20.5,6.4 -31.5,6.4 -22.4,0 -41.5,-7.9 -57.3,-23.6 -15.8,-15.8 -23.6,-34.9 -23.6,-57.3 0,-22.4 7.9,-41.5 23.6,-57.3 15.7,-15.8 34.9,-23.7 57.4,-23.7 z"
       id="path885"
       style="opacity:1;fill:#ffffff;fill-opacity:1" /></g></g>
</svg>
