<?xml version="1.0" encoding="UTF-8" standalone="no"?>
<!-- Svg Vector Icons : http://www.onlinewebfonts.com/icon -->

<svg
   version="1.1"
   x="0px"
   y="0px"
   viewBox="0 0 979.90039 979.90039"
   enable-background="new 0 0 1000 1000"
   xml:space="preserve"
   id="svg39"
   sodipodi:docname="settings.svg"
   width="979.90039"
   height="979.90039"
   xmlns:inkscape="http://www.inkscape.org/namespaces/inkscape"
   xmlns:sodipodi="http://sodipodi.sourceforge.net/DTD/sodipodi-0.dtd"
   xmlns="http://www.w3.org/2000/svg"
   xmlns:svg="http://www.w3.org/2000/svg"><defs
   id="defs43" /><sodipodi:namedview
   id="namedview41"
   pagecolor="#3c3c3c"
   bordercolor="#999999"
   borderopacity="1"
   inkscape:showpageshadow="0"
   inkscape:pageopacity="0"
   inkscape:pagecheckerboard="0"
   inkscape:deskcolor="#d1d1d1"
   showgrid="false" />
<metadata
   id="metadata2"> Svg Vector Icons : http://www.onlinewebfonts.com/icon </metadata>
<g
   id="g37"
   transform="translate(-10,-10)"><g
     id="g5"><path
       id="settings_1_"
       d="M 954.1,428.6 857,412.4 C 849.9,383.6 839.7,356 826.3,330.3 l 62.1,-77.1 c 13.2,-16.3 12.6,-39.7 -1.3,-55.4 l -38.6,-43.5 c -14,-15.7 -37.2,-19 -54.9,-7.8 l -83,52.2 C 674.1,173.2 632.7,154.3 588.1,143.4 L 571.9,45.8 C 568.5,25.2 550.6,10 529.6,10 h -58.2 c -21,0 -38.9,15.2 -42.2,35.8 l -16.3,97.6 c -36.9,9 -71.5,23.6 -103,42.8 l -79,-56.3 c -17,-12.2 -40.4,-10.3 -55.2,4.6 l -41.1,41.1 c -14.8,14.8 -16.7,38.2 -4.5,55.2 l 56.5,79.1 c -19,31.3 -33.5,65.7 -42.5,102.3 L 45.9,428.6 C 25.2,432.1 10,449.9 10,470.9 V 529 c 0,21 15.2,38.9 35.8,42.3 l 98.2,16.4 c 7.4,30.1 18.2,58.8 32.5,85.5 l -61.9,76.6 c -13.2,16.3 -12.6,39.7 1.3,55.4 l 38.6,43.5 c 14,15.7 37.2,19 54.9,7.8 l 84.2,-52.9 c 35.6,24.4 75.9,42.3 119.2,52.9 l 16.3,97.6 c 3.3,20.7 21.3,35.8 42.2,35.8 h 58.2 c 21,0 38.9,-15.2 42.3,-35.8 l 16.3,-97.6 c 36.4,-8.9 70.6,-23.2 101.9,-42.1 l 82.2,58.7 c 17,12.2 40.4,10.3 55.2,-4.6 l 41.1,-41.1 c 14.8,-14.8 16.8,-38.2 4.5,-55.2 L 814.4,690.1 C 833.5,658.7 848,624.2 857,587.5 l 97.1,-16.2 c 20.7,-3.4 35.8,-21.3 35.8,-42.3 v -58.1 c 0.1,-21 -15.1,-38.8 -35.8,-42.3 z M 501.5,683.7 C 400,683.7 317.8,601.4 317.8,500 c 0,-101.5 82.3,-183.7 183.7,-183.7 101.4,0 183.7,82.3 183.7,183.7 0.1,101.4 -82.2,183.7 -183.7,183.7 z"
       style="opacity:1;fill:#ffffff;fill-opacity:1" /></g></g>
</svg>
